<?xml version="1.0" encoding="UTF-8" standalone="no"?>
<svg
   height="613.1999999999999"
   version="1.1"
   width="440.79999999999995"
   id="svg1692"
   sodipodi:docname="fox-easy.svg"
   inkscape:version="1.1.2 (0a00cf5339, 2022-02-04)"
   xmlns:inkscape="http://www.inkscape.org/namespaces/inkscape"
   xmlns:sodipodi="http://sodipodi.sourceforge.net/DTD/sodipodi-0.dtd"
   xmlns="http://www.w3.org/2000/svg"
   xmlns:svg="http://www.w3.org/2000/svg">
  <sodipodi:namedview
     id="namedview1694"
     pagecolor="#ffffff"
     bordercolor="#666666"
     borderopacity="1.0"
     inkscape:pageshadow="2"
     inkscape:pageopacity="0.0"
     inkscape:pagecheckerboard="0"
     showgrid="false"
     inkscape:zoom="1.8313067"
     inkscape:cx="222.24568"
     inkscape:cy="359.03325"
     inkscape:window-width="1850"
     inkscape:window-height="1016"
     inkscape:window-x="70"
     inkscape:window-y="27"
     inkscape:window-maximized="1"
     inkscape:current-layer="svg1692" />
  <defs
     id="defs1628" />
  <g
     transform="scale(1.16)"
     id="g1690">
    <rect
       fill="rgb(240, 240, 240)"
       height="490.0"
       width="60"
       x="70"
       y="20"
       id="rect1630" />
    <rect
       fill="rgb(240, 240, 240)"
       height="490.0"
       width="60"
       x="190"
       y="20"
       id="rect1632" />
    <rect
       fill="rgb(240, 240, 240)"
       height="490.0"
       width="60"
       x="310"
       y="20"
       id="rect1634" />
    <text
       font-family="Helvetica"
       font-size="30.0"
       text-anchor="middle"
       x="190.0"
       y="50.0"
       id="text1636">The Fox and the Grapes</text>
    <text
       font-family="Helvetica"
       font-size="20"
       text-anchor="middle"
       x="190.0"
       y="70.0"
       id="text1638">by Aesop</text>
    <text
       font-family="Courier"
       font-size="20"
       transform="translate(360)"
       x="10"
       y="47.0"
       id="text1640" />
    <text
       font-family="Courier"
       font-size="20"
       transform="translate(360)"
       x="10"
       y="40"
       id="text1642" />
    <text
       font-family="Courier"
       font-size="20"
       transform="translate(360)"
       x="10"
       y="60"
       id="text1644" />
    <text
       font-family="Courier"
       font-size="20"
       x="10"
       y="107.0"
       id="text1646">--- --- ------ - --- - --- ---</text>
    <text
       font-family="Courier"
       font-size="20"
       transform="translate(168)"
       x="10"
       y="100"
       id="text1648">’               </text>
    <text
       font-family="Courier"
       font-size="20"
       x="10"
       y="120"
       id="text1650">eno hot emmrsu s ady a fox asw</text>
    <text
       font-family="Courier"
       font-size="20"
       x="10"
       y="167.0"
       id="text1652">--------- ------- -- -------  </text>
    <text
       font-family="Courier"
       font-size="20"
       transform="translate(360)"
       x="10"
       y="160"
       id="text1654" />
    <text
       font-family="Courier"
       font-size="20"
       x="10"
       y="180"
       id="text1656">gillnorst ghhortu an acdhorr  </text>
    <text
       font-family="Courier"
       font-size="20"
       x="10"
       y="227.0"
       id="text1658">---- -- ---- -- - ----- --    </text>
    <text
       font-family="Courier"
       font-size="20"
       transform="translate(360)"
       x="10"
       y="220"
       id="text1660" />
    <text
       font-family="Courier"
       font-size="20"
       x="10"
       y="240"
       id="text1662">illt eh acem ot a bchnu fo    </text>
    <text
       font-family="Courier"
       font-size="20"
       x="10"
       y="287.0"
       id="text1664">------ ---- -------- -- - ----</text>
    <text
       font-family="Courier"
       font-size="20"
       transform="translate(360)"
       x="10"
       y="280"
       id="text1666" />
    <text
       font-family="Courier"
       font-size="20"
       x="10"
       y="300"
       id="text1668">aegprs jstu egiinnpr no a einv</text>
    <text
       font-family="Courier"
       font-size="20"
       x="10"
       y="347.0"
       id="text1670">----- --- ---- ------- ---- - </text>
    <text
       font-family="Courier"
       font-size="20"
       transform="translate(360)"
       x="10"
       y="340"
       id="text1672" />
    <text
       font-family="Courier"
       font-size="20"
       x="10"
       y="360"
       id="text1674">chhiw adh been adeinrt eorv a </text>
    <text
       font-family="Courier"
       font-size="20"
       x="10"
       y="400"
       id="text1676">ghaceheacabeeioeaaageahcaardae</text>
    <text
       font-family="Courier"
       font-size="20"
       x="10"
       y="420"
       id="text1678">oielhlhjdsmeenpghdanncnfherias</text>
    <text
       font-family="Courier"
       font-size="20"
       x="10"
       y="440"
       id="text1680">sniohoingumhrousnibn droofvwn </text>
    <text
       font-family="Courier"
       font-size="20"
       x="10"
       y="460"
       id="text1682">trlplst s tmrr tr iu o  ox    </text>
    <text
       font-family="Courier"
       font-size="20"
       x="10"
       y="480"
       id="text1684">wtr     u t  t    ny o  v     </text>
    <text
       font-family="Courier"
       font-size="20"
       transform="translate(360)"
       x="10"
       y="500"
       id="text1686" />
    <text
       font-family="Courier"
       font-size="20"
       text-anchor="middle"
       x="190.0"
       y="380"
       id="text1688">* * *</text>
  </g>
  <g
     aria-label="One hot               s day a fox"
     id="text19714"
     style="font-size:32px;line-height:1.25;font-family:'Gochi Hand';-inkscape-font-specification:'Gochi Hand';letter-spacing:0px;word-spacing:0px">
    <path
       d="m 13.127155,114.80942 q -1.703125,0 -3.1406247,-0.57813 -1.421875,-0.57812 -2.453125,-1.60937 -1.03125,-1.04688 -1.609375,-2.48438 -0.578125,-1.4375 -0.578125,-3.17187 0,-0.9375 0.15625,-1.79688 0.171875,-0.875 0.453125,-1.625 0.125,-0.29687 0.125,-0.42187 0,-0.15625 -0.078125,-0.29688 -0.078125,-0.14062 -0.171875,-0.29687 -0.09375,-0.15625 -0.171875,-0.32813 -0.078125,-0.17187 -0.078125,-0.39062 0,-0.65625 0.75,-1.28125 0.75,-0.640627 1.984375,-1.125002 1.234375,-0.5 2.7968747,-0.796875 1.5625,-0.3125 3.203125,-0.3125 2.015625,0 3.625,0.515625 1.625,0.515625 2.75,1.484372 1.140625,0.95313 1.75,2.32813 0.609375,1.375 0.609375,3.09375 0,1.92187 -0.765625,3.59375 -0.765625,1.65625 -2.109375,2.875 -1.328125,1.21875 -3.140625,1.92187 -1.8125,0.70313 -3.90625,0.70313 z m 6.78125,-8.48438 q 0,-1.21875 -0.421875,-2.1875 -0.421875,-0.96875 -1.21875,-1.625 -0.796875,-0.67187 -1.96875,-1.01562 -1.15625,-0.35938 -2.625,-0.35938 -2.578125,0 -3.8906247,1.3125 -1.296875,1.29688 -1.296875,3.875 0,1.25 0.390625,2.29688 0.390625,1.03125 1.09375,1.78125 0.7031247,0.73437 1.6718747,1.15625 0.984375,0.40625 2.15625,0.40625 1.34375,0 2.46875,-0.40625 1.125,-0.42188 1.921875,-1.17188 0.8125,-0.75 1.265625,-1.78125 0.453125,-1.04687 0.453125,-2.28125 z"
       id="path114357" />
    <path
       d="m 25.283405,100.24692 q 0,-0.23438 0.203125,-0.453127 0.203125,-0.234375 0.53125,-0.40625 0.328125,-0.1875 0.734375,-0.296875 0.421875,-0.125 0.84375,-0.125 0.234375,0 0.390625,0.125 0.171875,0.125 0.296875,0.484375 0.125,0.34375 0.21875,0.984377 0.109375,0.625 0.203125,1.64062 0.0625,0.3125 0.109375,0.48438 0.0625,0.15625 0.15625,0.15625 0.140625,0 0.28125,-0.48438 1.140625,-3.296872 3.296875,-3.296872 1,0 1.8125,0.625 0.828125,0.625002 1.53125,2.046872 0.71875,1.40625 1.359375,3.71875 0.640625,2.29688 1.28125,5.67188 0.03125,0.17187 0.04687,0.3125 0.01563,0.14062 0.01563,0.26562 0,0.35938 -0.171875,0.625 -0.15625,0.25 -0.421875,0.42188 -0.265625,0.15625 -0.59375,0.23437 -0.328125,0.0937 -0.65625,0.0937 -0.65625,0 -0.953125,-0.14062 -0.28125,-0.14063 -0.359375,-0.53125 -0.453125,-2.375 -0.890625,-4.21875 -0.421875,-1.84375 -0.84375,-3.09375 -0.40625,-1.26563 -0.8125,-1.92188 -0.40625,-0.65625 -0.8125,-0.65625 -0.40625,0 -0.765625,0.51563 -0.34375,0.5 -0.671875,1.57812 -0.328125,1.07813 -0.640625,2.73438 -0.296875,1.65625 -0.578125,3.95312 -0.07813,0.625 -0.625,1 -0.546875,0.375 -1.390625,0.375 -0.5625,0 -0.859375,-0.23437 -0.296875,-0.23438 -0.328125,-0.64063 -0.140625,-3.25 -0.3125,-5.34375 -0.15625,-2.10937 -0.296875,-3.375 -0.140625,-1.28125 -0.234375,-1.90625 -0.09375,-0.625 -0.09375,-0.92187 z"
       id="path114359" />
    <path
       d="m 53.51778,109.43442 q 0.453125,-0.39063 0.890625,-0.39063 0.25,0 0.453125,0.125 0.203125,0.125 0.453125,0.39063 0.234375,0.35937 0.328125,0.59375 0.109375,0.21875 0.109375,0.4375 0,0.46875 -0.46875,0.89062 -0.75,0.625 -1.625,1.125 -0.875,0.48438 -1.828125,0.82813 -0.953125,0.34375 -1.96875,0.51562 -1.015625,0.1875 -2.015625,0.1875 -1.265625,0 -2.375,-0.32812 -1.109375,-0.3125 -1.984375,-0.90625 -0.859375,-0.59375 -1.453125,-1.42188 -0.59375,-0.84375 -0.84375,-1.89062 -0.140625,-0.4375 -0.265625,-0.5625 -0.109375,-0.14063 -0.375,-0.14063 -0.578125,0 -0.890625,-0.28125 -0.3125,-0.28125 -0.3125,-0.8125 0,-0.21875 0.03125,-0.28125 l 0.03125,-0.3125 q 0.07813,-0.5625 0.296875,-0.8125 0.234375,-0.25 0.71875,-0.25 h 0.234375 q 0.65625,0 0.921875,-0.60937 0.484375,-1.07813 1.234375,-1.96875 0.75,-0.89063 1.6875,-1.51563 0.9375,-0.64062 2,-0.98437 1.078125,-0.35938 2.1875,-0.35938 1.15625,0 2.15625,0.34375 1.015625,0.32813 1.765625,0.92188 0.75,0.59375 1.171875,1.39062 0.4375,0.79688 0.4375,1.71875 0,0.64063 -0.25,1.17188 -0.25,0.53125 -0.71875,0.9375 -0.46875,0.39062 -1.140625,0.64062 -0.65625,0.25 -1.5,0.32813 l -5.421875,0.54687 q -0.3125,0 -0.515625,0.15625 -0.1875,0.15625 -0.1875,0.42188 0,0.40625 0.296875,0.78125 0.3125,0.375 0.8125,0.67187 0.515625,0.28125 1.171875,0.45313 0.671875,0.17187 1.375,0.17187 0.671875,0 1.375,-0.125 0.71875,-0.14062 1.40625,-0.39062 0.703125,-0.25 1.359375,-0.59375 0.65625,-0.35938 1.234375,-0.8125 z m -3.484375,-4.03125 q 0.234375,-0.0469 0.40625,-0.21875 0.171875,-0.1875 0.171875,-0.45313 0,-0.23437 -0.171875,-0.4375 -0.171875,-0.20312 -0.46875,-0.35937 -0.296875,-0.17188 -0.6875,-0.26563 -0.390625,-0.0937 -0.828125,-0.0937 -0.640625,0 -1.3125,0.1875 -0.671875,0.1875 -1.21875,0.5 -0.546875,0.29688 -0.890625,0.67188 -0.34375,0.35937 -0.34375,0.71875 0,0.35937 0.4375,0.35937 0.265625,0 0.859375,-0.0625 0.59375,-0.0625 1.3125,-0.14062 0.71875,-0.0937 1.453125,-0.20313 0.734375,-0.10937 1.28125,-0.20312 z"
       id="path114361" />
    <path
       d="m 63.877155,97.809418 q 0,-1.6875 2.1875,-1.6875 0.375,0 0.65625,0.203125 0.28125,0.203125 0.328125,0.5625 0.140625,0.953125 0.25,1.890625 0.109375,0.9375 0.203125,2.109372 0.109375,1.15625 0.203125,2.6875 0.109375,1.51563 0.234375,3.625 0,0.21875 0.0625,0.3125 0.07813,0.0937 0.171875,0.0937 0.140625,0 0.28125,-0.28125 0.53125,-1.17187 1.1875,-2.09375 0.65625,-0.9375 1.40625,-1.57812 0.75,-0.65625 1.578125,-0.98438 0.84375,-0.34375 1.71875,-0.34375 1.15625,0 2.09375,0.65625 0.9375,0.65625 1.59375,1.85938 0.65625,1.20312 1.015625,2.92187 0.359375,1.70313 0.359375,3.8125 0,0.57813 -0.09375,0.95313 -0.07813,0.35937 -0.28125,0.57812 -0.203125,0.21875 -0.5625,0.29688 -0.359375,0.0937 -0.890625,0.0937 -0.734375,0 -1.0625,-0.28125 -0.3125,-0.28125 -0.3125,-0.875 0,-1.46875 -0.203125,-2.76563 -0.1875,-1.3125 -0.53125,-2.29687 -0.34375,-0.98438 -0.8125,-1.5625 -0.453125,-0.57813 -0.984375,-0.57813 -1.203125,0 -2.40625,1.95313 -1.1875,1.95312 -2.484375,5.89062 -0.125,0.35938 -0.28125,0.59375 -0.15625,0.23438 -0.375,0.375 -0.203125,0.14063 -0.5,0.1875 -0.296875,0.0625 -0.703125,0.0625 -0.828125,0 -1.1875,-0.3125 -0.34375,-0.3125 -0.375,-1.03125 -0.09375,-2.71875 -0.34375,-5.1875 -0.234375,-2.48437 -0.5,-4.48437 -0.25,-2.01563 -0.453125,-3.406252 -0.1875,-1.40625 -0.1875,-1.96875 z"
       id="path114363" />
    <path
       d="m 81.70528,107.66879 q 0,-0.26562 0.0625,-0.59375 0.0625,-0.32812 0.0625,-0.71875 0,-0.26562 -0.234375,-0.40625 -0.21875,-0.14062 -0.5,-0.3125 -0.28125,-0.17187 -0.515625,-0.4375 -0.21875,-0.26562 -0.21875,-0.76562 0,-0.35938 0.1875,-0.71875 0.203125,-0.35938 0.578125,-0.65625 0.921875,-0.6875 1.90625,-1.23438 1,-0.54687 1.984375,-0.92187 1,-0.375 1.96875,-0.57813 0.96875,-0.20312 1.859375,-0.20312 1.5,0 2.8125,0.5625 1.328125,0.54687 2.296875,1.51562 0.984375,0.95313 1.546875,2.25 0.578125,1.28125 0.578125,2.75 0,1.4375 -0.609375,2.73438 -0.59375,1.28125 -1.609375,2.25 -1.015625,0.96875 -2.390625,1.53125 -1.359375,0.57812 -2.875,0.57812 -1.484375,0 -2.75,-0.5 -1.265625,-0.5 -2.1875,-1.375 -0.921875,-0.89062 -1.4375,-2.09375 -0.515625,-1.21875 -0.515625,-2.65625 z m 7.234375,3.8125 q 0.65625,0 1.359375,-0.26562 0.703125,-0.26563 1.28125,-0.76563 0.59375,-0.51562 0.96875,-1.25 0.390625,-0.73437 0.390625,-1.65625 0,-0.9375 -0.34375,-1.75 -0.34375,-0.8125 -0.953125,-1.40625 -0.59375,-0.60937 -1.421875,-0.95312 -0.8125,-0.34375 -1.765625,-0.34375 -1.734375,0 -2.65625,0.90625 -0.921875,0.89062 -0.921875,2.75 0,1.01562 0.296875,1.89062 0.3125,0.85938 0.859375,1.5 0.546875,0.625 1.28125,0.98438 0.75,0.35937 1.625,0.35937 z"
       id="path114365" />
    <path
       d="m 99.564655,94.809418 q 0,-0.828125 0.468755,-1.15625 0.46875,-0.34375 1.54687,-0.34375 0.39063,0 0.65625,0.07813 0.28125,0.0625 0.46875,0.25 0.20313,0.1875 0.3125,0.5 0.125,0.296875 0.20313,0.765625 0.1875,1.453125 0.40625,3 0.23437,1.546875 0.48437,3.109372 0.0937,0.70313 0.73438,0.70313 0.17187,0 0.5625,-0.0312 0.40625,-0.0469 0.95312,-0.0937 0.54688,-0.0625 1.17188,-0.125 0.64062,-0.0625 1.26562,-0.10938 0.64063,-0.0625 1.20313,-0.0937 0.57812,-0.0469 1.01562,-0.0469 0.34375,0 0.54688,0.14062 0.20312,0.125 0.3125,0.34375 0.125,0.20313 0.15625,0.46875 0.0469,0.25 0.0469,0.51563 0,0.23437 -0.0937,0.48437 -0.0781,0.25 -0.23437,0.45313 -0.14063,0.1875 -0.35938,0.3125 -0.21875,0.125 -0.5,0.125 -1.35937,0 -2.75,0.0937 -1.375,0.0781 -2.75,0.21875 -0.70312,0.0937 -0.70312,0.70312 0,0.0469 0.0156,0.125 0.0156,0.0625 0.0156,0.10938 0.1875,1.35937 0.34375,2.54687 0.17187,1.1875 0.28125,2.125 0.125,0.92188 0.1875,1.54688 0.0781,0.60937 0.0781,0.8125 0,0.5625 -0.10937,0.9375 -0.10938,0.39062 -0.35938,0.625 -0.25,0.25 -0.67187,0.34375 -0.40625,0.10937 -1.03125,0.10937 -0.59375,0 -0.875,-0.28125 -0.28125,-0.28125 -0.3125,-0.85937 -0.0937,-1.84375 -0.29688,-3.70313 -0.20312,-1.875 -0.46875,-3.73437 -0.14062,-0.67188 -0.70312,-0.67188 -0.0469,0 -0.10938,0.0156 -0.0625,0.0156 -0.10937,0.0156 -0.968755,0.21875 -1.82813,0.4375 -0.859375,0.21875 -1.609375,0.46875 -0.421875,0.14063 -0.75,0.20313 -0.328125,0.0469 -0.59375,0.0469 -0.359375,0 -0.53125,-0.3125 -0.171875,-0.32812 -0.171875,-0.8125 0,-0.17187 0.03125,-0.39062 0.03125,-0.23438 0.125,-0.45313 0.07813,-0.23437 0.25,-0.42187 0.15625,-0.20313 0.4375,-0.32813 0.65625,-0.26562 1.75,-0.54687 1.09375,-0.29688 2.46875,-0.54688 0.3125,-0.0781 0.48438,-0.25 0.1875,-0.1875 0.1875,-0.54687 0,-0.0781 0,-0.15625 0,-0.0937 -0.0312,-0.1875 -0.25,-1.437502 -0.48438,-2.609377 -0.21875,-1.1875 -0.390625,-2.03125 -0.15625,-0.84375 -0.25,-1.328125 -0.09375,-0.484375 -0.09375,-0.5625 z"
       id="path114367" />
    <path
       d="m 228.73653,99.293793 q 1.04688,0 2.15625,0.28125 1.10938,0.265625 2.03125,0.703127 0.92188,0.42187 1.51563,0.95312 0.59375,0.53125 0.59375,1.03125 0,0.25 -0.21875,0.5625 -0.21875,0.29688 -0.53125,0.57813 -0.3125,0.26562 -0.6875,0.45312 -0.35938,0.17188 -0.64063,0.17188 -0.375,0 -0.84375,-0.3125 -0.45312,-0.3125 -1.01562,-0.6875 -0.54688,-0.39063 -1.20313,-0.70313 -0.65625,-0.3125 -1.42187,-0.3125 -0.5,0 -0.82813,0.25 -0.3125,0.23438 -0.3125,0.67188 0,0.39062 0.375,0.79687 0.375,0.39063 0.98438,0.8125 0.625,0.42188 1.40625,0.89063 0.78125,0.46875 1.59375,1 0.82812,0.53125 1.60937,1.15625 0.78125,0.625 1.39063,1.35937 0.625,0.73438 1,1.60938 0.375,0.85937 0.375,1.875 0,0.875 -0.3125,1.59375 -0.3125,0.71875 -0.89063,1.23437 -0.57812,0.51563 -1.375,0.79688 -0.79687,0.28125 -1.75,0.28125 -1.20312,0 -2.21875,-0.375 -1.01562,-0.35938 -1.75,-1 -0.73437,-0.64063 -1.15625,-1.53125 -0.40625,-0.89063 -0.40625,-1.95313 0,-1.375 0.48438,-2 0.5,-0.625 1.5625,-0.625 0.65625,0 1.04687,0.25 0.39063,0.25 0.39063,0.60938 0,0.1875 -0.0625,0.39062 -0.0625,0.1875 -0.14063,0.40625 -0.0625,0.20313 -0.125,0.4375 -0.0469,0.23438 -0.0469,0.46875 0,0.40625 0.1875,0.78125 0.1875,0.375 0.5,0.65625 0.32812,0.29688 0.75,0.46875 0.42187,0.17188 0.89062,0.17188 1.25,0 1.25,-1.03125 0,-0.8125 -0.64062,-1.53125 -0.64063,-0.73438 -1.60938,-1.42188 -0.96875,-0.70312 -2.09375,-1.40625 -1.10937,-0.70312 -2.07812,-1.46875 -0.96875,-0.76562 -1.60938,-1.625 -0.64062,-0.875 -0.64062,-1.89062 0,-0.84375 0.34375,-1.54688 0.35937,-0.70312 0.96875,-1.20312 0.60937,-0.515627 1.42187,-0.796877 0.82813,-0.28125 1.78125,-0.28125 z"
       id="path114369" />
    <path
       d="m 254.65841,101.43442 q 0.0625,0.0312 0.1875,0.0312 0.34375,0 0.34375,-0.45313 v -4.859372 q 0,-0.921875 0.40625,-1.3125 0.42187,-0.390625 1.39062,-0.390625 0.98438,0 1.39063,0.40625 0.40625,0.40625 0.40625,1.390625 0,0.375 -0.0469,1.109375 -0.0469,0.71875 -0.10937,1.640625 -0.0469,0.921875 -0.0937,1.984372 -0.0469,1.04688 -0.0469,2.07813 0,1.59375 0.21875,2.75 0.21875,1.15625 0.625,1.92187 0.40625,0.75 0.96875,1.125 0.5625,0.35938 1.26563,0.35938 0.39062,0 0.70312,-0.0937 0.32813,-0.10938 0.76563,-0.10938 0.3125,0 0.51562,0.32813 0.21875,0.3125 0.21875,0.76562 0,0.40625 -0.25,0.76563 -0.23437,0.35937 -0.65625,0.625 -0.40625,0.26562 -0.95312,0.42187 -0.54688,0.14063 -1.14063,0.14063 -1.28125,0 -2.34375,-0.78125 -1.0625,-0.79688 -1.59375,-2.42188 -0.0469,-0.25 -0.15625,-0.25 -0.125,0 -0.20312,0.25 -0.42188,1.14063 -1.10938,2.0625 -0.67187,0.90625 -1.57812,1.5625 -0.89063,0.64063 -1.96875,0.98438 -1.0625,0.34375 -2.25,0.34375 -1.25,0 -2.29688,-0.42188 -1.03125,-0.40625 -1.78125,-1.14062 -0.75,-0.75 -1.17187,-1.75 -0.42188,-1.01563 -0.42188,-2.1875 0,-1.5 0.625,-2.82813 0.625,-1.32812 1.6875,-2.3125 1.07813,-1 2.5,-1.57812 1.42188,-0.57813 3.03125,-0.57813 0.65625,0 1.39063,0.10938 0.73437,0.0937 1.53125,0.3125 z m -4.48438,9.5625 q 0.89063,0 1.57813,-0.39063 0.70312,-0.39062 1.23437,-0.98437 0.54688,-0.60938 0.92188,-1.32813 0.375,-0.73437 0.60937,-1.42187 0.23438,-0.6875 0.34375,-1.23438 0.10938,-0.54687 0.10938,-0.78125 0,-0.17187 -0.0937,-0.29687 -0.0937,-0.14063 -0.28125,-0.21875 -0.42188,-0.10938 -0.875,-0.1875 -0.45313,-0.0937 -0.89063,-0.15625 -0.4375,-0.0625 -0.84375,-0.0937 -0.39062,-0.0312 -0.71875,-0.0312 -0.9375,0 -1.70312,0.28125 -0.76563,0.28125 -1.3125,0.79687 -0.53125,0.51563 -0.82813,1.23438 -0.29687,0.70312 -0.29687,1.54687 0,0.75 0.21875,1.35938 0.23437,0.59375 0.625,1.01562 0.40625,0.42188 0.96875,0.65625 0.5625,0.23438 1.23437,0.23438 z"
       id="path114371" />
    <path
       d="m 272.76778,99.200043 q 0.85938,0 1.65625,0.265625 0.79688,0.265625 1.40625,0.734372 0.60938,0.46875 0.96875,1.125 0.375,0.65625 0.375,1.45313 0,0.32812 -0.15625,0.64062 -0.14062,0.29688 -0.39062,0.53125 -0.25,0.21875 -0.57813,0.35938 -0.3125,0.125 -0.65625,0.125 -0.0312,0 -0.0625,0.0156 -0.0156,0 -0.0469,0 -0.0312,0.0156 -0.0625,0.0156 l 0.0625,1.25 q 0.0625,2.23437 0.625,3.26562 0.57812,1.03125 1.5,1.03125 0.32812,0 0.57812,-0.0625 0.26563,-0.0625 0.48438,-0.14062 0.23437,-0.0937 0.4375,-0.15625 0.20312,-0.0625 0.40625,-0.0625 0.35937,0 0.625,0.3125 0.28125,0.3125 0.28125,0.75 0,0.4375 -0.34375,0.875 -0.32813,0.4375 -0.875,0.79687 -0.54688,0.34375 -1.23438,0.5625 -0.6875,0.21875 -1.39062,0.21875 -1.21875,0 -2.14063,-1 -0.92187,-1.01562 -1.3125,-2.96875 -0.0937,-0.3125 -0.25,-0.3125 -0.1875,0 -0.32812,0.1875 -1.54688,1.95313 -3.29688,2.9375 -1.75,0.96875 -3.45312,0.96875 -0.79688,0 -1.4375,-0.23437 -0.64063,-0.23438 -1.09375,-0.65625 -0.4375,-0.4375 -0.6875,-1.04688 -0.23438,-0.625 -0.23438,-1.39062 0,-1.07813 0.46875,-2.26563 0.48438,-1.1875 1.29688,-2.34375 0.8125,-1.15625 1.875,-2.20312 1.07812,-1.04688 2.25,-1.84375 1.1875,-0.79688 2.40625,-1.265627 1.21875,-0.46875 2.32812,-0.46875 z m -0.51562,5.406247 q 0.28125,-0.53125 0.51562,-0.76562 0.23438,-0.25 0.67188,-0.32813 0.34375,-0.0469 0.34375,-0.21875 0,-0.125 -0.0937,-0.26562 -0.29688,-0.40625 -0.625,-0.70313 -0.32813,-0.3125 -0.875,-0.3125 -0.59375,0 -1.32813,0.34375 -0.73437,0.34375 -1.5,0.92188 -0.75,0.5625 -1.48437,1.29687 -0.71875,0.71875 -1.28125,1.48438 -0.5625,0.76562 -0.90625,1.51562 -0.34375,0.75 -0.34375,1.34375 0,0.53125 0.28125,0.82813 0.29687,0.29687 0.79687,0.29687 1.28125,0 2.79688,-1.35937 1.51562,-1.35938 3.03125,-4.07813 z"
       id="path114373" />
    <path
       d="m 287.23653,113.27817 q -0.9375,0 -1.875,-0.45313 -0.9375,-0.46875 -1.79687,-1.26562 -0.85938,-0.79688 -1.59375,-1.875 -0.73438,-1.09375 -1.28125,-2.34375 -0.54688,-1.26563 -0.85938,-2.64063 -0.3125,-1.375 -0.3125,-2.75 0,-1.0625 0.4375,-1.51562 0.4375,-0.468752 1.42188,-0.468752 1.23437,0 1.375,1.015622 0.28125,2.15625 0.78125,3.89063 0.5,1.73437 1.17187,2.95312 0.6875,1.21875 1.51563,1.875 0.84375,0.65625 1.78125,0.65625 0.67187,0 1.26562,-0.32812 0.59375,-0.34375 1.03125,-0.95313 0.15625,-0.23437 0.20313,-0.45312 0.0625,-0.21875 0.0937,-0.5 0.0781,-1.10938 0.17187,-2.17188 0.10938,-1.07812 0.20313,-2.15625 0.0312,-0.46875 0.125,-0.76562 0.0937,-0.29688 0.28125,-0.46875 0.1875,-0.17188 0.48437,-0.23438 0.3125,-0.0625 0.78125,-0.0625 0.53125,0 0.90625,0.15625 0.375,0.14063 0.60938,0.48438 0.23437,0.32812 0.32812,0.875 0.10938,0.53125 0.10938,1.32812 0,0.6875 -0.10938,1.20313 -0.0937,0.5 -0.23437,0.95312 -0.125,0.4375 -0.25,0.875 -0.10938,0.42188 -0.14063,0.9375 -0.0781,1.29688 -0.14062,2.25 -0.0625,0.9375 -0.10938,1.60938 -0.0312,0.67187 -0.0625,1.15625 -0.0156,0.48437 -0.0312,0.85937 -0.0156,0.39063 -0.0156,0.73438 0,0.34375 0,0.75 0,0.73437 0.0625,1.59375 0.0625,0.875 0.125,1.67187 0.0781,0.79688 0.14062,1.40625 0.0625,0.60938 0.0625,0.84375 0,0.29688 -0.1875,0.5625 -0.1875,0.26563 -0.5,0.46875 -0.3125,0.20313 -0.73437,0.3125 -0.42188,0.125 -0.89063,0.125 -0.40625,0 -0.65625,-0.28125 -0.23437,-0.26562 -0.26562,-0.71875 -0.0469,-0.59375 -0.0781,-1.45312 -0.0312,-0.84375 -0.0625,-1.8125 -0.0312,-0.95313 -0.0469,-1.95313 0,-0.98437 -0.0156,-1.84375 -0.0156,-0.84375 -0.0156,-1.48437 0,-0.64063 0,-0.92188 0,-0.28125 -0.0625,-0.39062 -0.0625,-0.125 -0.23438,-0.125 -0.0937,0 -0.25,0.0625 -0.15625,0.0469 -0.35937,0.17187 -0.54688,0.32813 -1.10938,0.46875 -0.5625,0.14063 -1.1875,0.14063 z"
       id="path114375" />
    <path
       d="m 313.86153,99.200043 q 0.85938,0 1.65625,0.265625 0.79688,0.265625 1.40625,0.734372 0.60938,0.46875 0.96875,1.125 0.375,0.65625 0.375,1.45313 0,0.32812 -0.15625,0.64062 -0.14062,0.29688 -0.39062,0.53125 -0.25,0.21875 -0.57813,0.35938 -0.3125,0.125 -0.65625,0.125 -0.0312,0 -0.0625,0.0156 -0.0156,0 -0.0469,0 -0.0312,0.0156 -0.0625,0.0156 l 0.0625,1.25 q 0.0625,2.23437 0.625,3.26562 0.57812,1.03125 1.5,1.03125 0.32812,0 0.57812,-0.0625 0.26563,-0.0625 0.48438,-0.14062 0.23437,-0.0937 0.4375,-0.15625 0.20312,-0.0625 0.40625,-0.0625 0.35937,0 0.625,0.3125 0.28125,0.3125 0.28125,0.75 0,0.4375 -0.34375,0.875 -0.32813,0.4375 -0.875,0.79687 -0.54688,0.34375 -1.23438,0.5625 -0.6875,0.21875 -1.39062,0.21875 -1.21875,0 -2.14063,-1 -0.92187,-1.01562 -1.3125,-2.96875 -0.0937,-0.3125 -0.25,-0.3125 -0.1875,0 -0.32812,0.1875 -1.54688,1.95313 -3.29688,2.9375 -1.75,0.96875 -3.45312,0.96875 -0.79688,0 -1.4375,-0.23437 -0.64063,-0.23438 -1.09375,-0.65625 -0.4375,-0.4375 -0.6875,-1.04688 -0.23438,-0.625 -0.23438,-1.39062 0,-1.07813 0.46875,-2.26563 0.48438,-1.1875 1.29688,-2.34375 0.8125,-1.15625 1.875,-2.20312 1.07812,-1.04688 2.25,-1.84375 1.1875,-0.79688 2.40625,-1.265627 1.21875,-0.46875 2.32812,-0.46875 z m -0.51562,5.406247 q 0.28125,-0.53125 0.51562,-0.76562 0.23438,-0.25 0.67188,-0.32813 0.34375,-0.0469 0.34375,-0.21875 0,-0.125 -0.0937,-0.26562 -0.29688,-0.40625 -0.625,-0.70313 -0.32813,-0.3125 -0.875,-0.3125 -0.59375,0 -1.32813,0.34375 -0.73437,0.34375 -1.5,0.92188 -0.75,0.5625 -1.48437,1.29687 -0.71875,0.71875 -1.28125,1.48438 -0.5625,0.76562 -0.90625,1.51562 -0.34375,0.75 -0.34375,1.34375 0,0.53125 0.28125,0.82813 0.29687,0.29687 0.79687,0.29687 1.28125,0 2.79688,-1.35937 1.51562,-1.35938 3.03125,-4.07813 z"
       id="path114377" />
    <path
       d="m 328.06466,104.24692 q -0.35938,-0.0312 -0.57813,-0.46875 -0.21875,-0.4375 -0.21875,-0.96875 0,-0.25 0.0469,-0.48438 0.0312,-0.25 0.125,-0.4375 0.0937,-0.1875 0.23437,-0.29687 0.14063,-0.125 0.32813,-0.125 0.57812,0 1.32812,-0.0312 0.75,-0.0469 1.60938,-0.0937 0.4375,-0.0469 0.48437,-0.51563 0.14063,-2.265622 0.39063,-3.906247 0.25,-1.640625 0.60937,-2.765625 0.35938,-1.140625 0.8125,-1.84375 0.46875,-0.703125 1.03125,-1.078125 0.17188,-0.125 0.40625,-0.25 0.23438,-0.140625 0.4375,-0.140625 0.39063,0 0.8125,0.203125 0.4375,0.1875 0.79688,0.5 0.375,0.296875 0.60937,0.6875 0.23438,0.375 0.23438,0.75 0,0.140625 -0.0625,0.234375 -0.0625,0.07813 -0.15625,0.15625 -0.60938,0.453125 -1.07813,1.015625 -0.46875,0.5625 -0.79687,1.375 -0.32813,0.8125 -0.54688,1.953125 -0.21875,1.140625 -0.32812,2.750002 0,0.25 0.0781,0.375 0.0937,0.10937 0.32813,0.10937 0.60937,0 1.21875,-0.0937 0.625,-0.0937 1.1875,-0.1875 0.5625,-0.10937 1.0625,-0.20312 0.5,-0.0937 0.89062,-0.0937 0.28125,0 0.40625,0.34375 0.14063,0.32812 0.14063,0.8125 0,0.28125 -0.0469,0.57812 -0.0469,0.29688 -0.15625,0.53125 -0.0937,0.23438 -0.25,0.40625 -0.15625,0.15625 -0.39062,0.1875 l -4.15625,0.4375 q -0.32813,0.0469 -0.40625,0.26563 -0.0625,0.21875 -0.0625,0.60937 0,3.45313 0.17187,5.9375 0.17188,2.48438 0.375,4.17188 0.21875,1.70312 0.39063,2.67187 0.17187,0.98438 0.17187,1.42188 0,0.32812 -0.26562,0.59375 -0.25,0.26562 -0.65625,0.45312 -0.39063,0.1875 -0.85938,0.28125 -0.46875,0.10938 -0.875,0.10938 -0.39062,0 -0.70312,-0.14063 -0.29688,-0.125 -0.34375,-0.4375 -0.15625,-1.09375 -0.26563,-2.40625 -0.10937,-1.29687 -0.1875,-2.89062 -0.0625,-1.57813 -0.0937,-3.45313 -0.0312,-1.89062 -0.0312,-4.14062 0,-0.57813 0,-1.125 0,-0.54688 0.0312,-1.09375 0,-0.46875 -0.51562,-0.46875 l -2.71875,0.21875 z"
       id="path114379" />
    <path
       d="m 339.39278,107.66879 q 0,-0.26562 0.0625,-0.59375 0.0625,-0.32812 0.0625,-0.71875 0,-0.26562 -0.23437,-0.40625 -0.21875,-0.14062 -0.5,-0.3125 -0.28125,-0.17187 -0.51563,-0.4375 -0.21875,-0.26562 -0.21875,-0.76562 0,-0.35938 0.1875,-0.71875 0.20313,-0.35938 0.57813,-0.65625 0.92187,-0.6875 1.90625,-1.23438 1,-0.54687 1.98437,-0.92187 1,-0.375 1.96875,-0.57813 0.96875,-0.20312 1.85938,-0.20312 1.5,0 2.8125,0.5625 1.32812,0.54687 2.29687,1.51562 0.98438,0.95313 1.54688,2.25 0.57812,1.28125 0.57812,2.75 0,1.4375 -0.60937,2.73438 -0.59375,1.28125 -1.60938,2.25 -1.01562,0.96875 -2.39062,1.53125 -1.35938,0.57812 -2.875,0.57812 -1.48438,0 -2.75,-0.5 -1.26563,-0.5 -2.1875,-1.375 -0.92188,-0.89062 -1.4375,-2.09375 -0.51563,-1.21875 -0.51563,-2.65625 z m 7.23438,3.8125 q 0.65625,0 1.35937,-0.26562 0.70313,-0.26563 1.28125,-0.76563 0.59375,-0.51562 0.96875,-1.25 0.39063,-0.73437 0.39063,-1.65625 0,-0.9375 -0.34375,-1.75 -0.34375,-0.8125 -0.95313,-1.40625 -0.59375,-0.60937 -1.42187,-0.95312 -0.8125,-0.34375 -1.76563,-0.34375 -1.73437,0 -2.65625,0.90625 -0.92187,0.89062 -0.92187,2.75 0,1.01562 0.29687,1.89062 0.3125,0.85938 0.85938,1.5 0.54687,0.625 1.28125,0.98438 0.75,0.35937 1.625,0.35937 z"
       id="path114381" />
    <path
       d="m 356.23653,99.668793 q -0.20312,-0.328125 -0.26562,-0.546875 -0.0625,-0.234375 -0.0625,-0.375 0,-0.265625 0.23437,-0.546875 0.23438,-0.28125 0.57813,-0.5 0.34375,-0.234375 0.73437,-0.375 0.39063,-0.15625 0.6875,-0.15625 0.17188,0 0.35938,0.140625 0.20312,0.125 0.54687,0.671875 0.54688,0.890625 1.14063,1.84375 0.60937,0.953127 1.28125,1.921877 0.26562,0.35937 0.54687,0.35937 0.3125,0 0.57813,-0.32812 1.0625,-1.17188 2.14062,-2.171877 1.07813,-1 2.15625,-1.625 0.65625,-0.390625 1.07813,-0.515625 0.42187,-0.125 0.60937,-0.125 0.29688,0 0.60938,0.1875 0.3125,0.1875 0.5625,0.46875 0.26562,0.265625 0.42187,0.5625 0.17188,0.296875 0.17188,0.53125 0,0.359375 -0.45313,0.703125 -0.4375,0.343747 -1.28125,0.843747 -1.17187,0.71875 -2.23437,1.6875 -1.04688,0.96875 -2.01563,2.04688 -0.15625,0.15625 -0.21875,0.29687 -0.0469,0.14063 -0.0469,0.28125 0,0.125 0.0469,0.26563 0.0625,0.14062 0.1875,0.28125 0.57813,0.67187 1.15625,1.23437 0.57813,0.5625 1.10938,0.96875 0.54687,0.39063 1.04687,0.625 0.51563,0.21875 0.96875,0.21875 0.35938,0 0.76563,-0.0937 0.40625,-0.10937 0.73437,-0.10937 0.45313,0 0.625,0.28125 0.1875,0.26562 0.1875,0.71875 0,0.51562 -0.1875,0.92187 -0.1875,0.40625 -0.51562,0.6875 -0.3125,0.26563 -0.75,0.42188 -0.4375,0.14062 -0.92188,0.14062 -0.75,0 -1.53125,-0.26562 -0.78125,-0.26563 -1.5625,-0.73438 -0.78125,-0.46875 -1.54687,-1.09375 -0.76563,-0.64062 -1.5,-1.39062 -0.28125,-0.29688 -0.57813,-0.29688 -0.3125,0 -0.57812,0.32813 -0.73438,0.90625 -1.42188,1.70312 -0.67187,0.79688 -1.3125,1.39063 -0.625,0.59375 -1.21875,0.9375 -0.57812,0.34375 -1.14062,0.34375 -0.40625,0 -0.71875,-0.15625 -0.29688,-0.17188 -0.5,-0.40625 -0.20313,-0.23438 -0.3125,-0.48438 -0.0937,-0.25 -0.0937,-0.42187 0,-0.21875 0.15625,-0.40625 0.15625,-0.20313 0.45312,-0.4375 0.29688,-0.25 0.6875,-0.59375 0.40625,-0.34375 0.90625,-0.85938 0.54688,-0.54687 1.20313,-1.34375 0.65625,-0.8125 1.42187,-1.73437 0.0781,-0.0937 0.125,-0.20313 0.0469,-0.125 0.0469,-0.25 0,-0.4375 -0.48438,-1.10937 -0.96875,-1.32813 -1.6875,-2.48438 -0.71875,-1.17187 -1.125,-1.874997 z"
       id="path114383" />
  </g>
  <g
     aria-label="an"
     id="text30974"
     style="font-size:32px;line-height:1.25;font-family:'Gochi Hand';-inkscape-font-specification:'Gochi Hand';letter-spacing:0px;word-spacing:0px">
    <path
       d="m 273.82349,166.41071 q 0.85937,0 1.65625,0.26562 0.79687,0.26563 1.40625,0.73438 0.60937,0.46875 0.96875,1.125 0.375,0.65625 0.375,1.45312 0,0.32813 -0.15625,0.64063 -0.14063,0.29687 -0.39063,0.53125 -0.25,0.21875 -0.57812,0.35937 -0.3125,0.125 -0.65625,0.125 -0.0312,0 -0.0625,0.0156 -0.0156,0 -0.0469,0 -0.0312,0.0156 -0.0625,0.0156 l 0.0625,1.25 q 0.0625,2.23438 0.625,3.26563 0.57813,1.03125 1.5,1.03125 0.32813,0 0.57813,-0.0625 0.26562,-0.0625 0.48437,-0.14063 0.23438,-0.0937 0.4375,-0.15625 0.20313,-0.0625 0.40625,-0.0625 0.35938,0 0.625,0.3125 0.28125,0.3125 0.28125,0.75 0,0.4375 -0.34375,0.875 -0.32812,0.4375 -0.875,0.79688 -0.54687,0.34375 -1.23437,0.5625 -0.6875,0.21875 -1.39063,0.21875 -1.21875,0 -2.14062,-1 -0.92188,-1.01563 -1.3125,-2.96875 -0.0937,-0.3125 -0.25,-0.3125 -0.1875,0 -0.32813,0.1875 -1.54687,1.95312 -3.29687,2.9375 -1.75,0.96875 -3.45313,0.96875 -0.79687,0 -1.4375,-0.23438 -0.64062,-0.23437 -1.09375,-0.65625 -0.4375,-0.4375 -0.6875,-1.04687 -0.23437,-0.625 -0.23437,-1.39063 0,-1.07812 0.46875,-2.26562 0.48437,-1.1875 1.29687,-2.34375 0.8125,-1.15625 1.875,-2.20313 1.07813,-1.04687 2.25,-1.84375 1.1875,-0.79687 2.40625,-1.26562 1.21875,-0.46875 2.32813,-0.46875 z m -0.51563,5.40625 q 0.28125,-0.53125 0.51563,-0.76563 0.23437,-0.25 0.67187,-0.32812 0.34375,-0.0469 0.34375,-0.21875 0,-0.125 -0.0937,-0.26563 -0.29687,-0.40625 -0.625,-0.70312 -0.32812,-0.3125 -0.875,-0.3125 -0.59375,0 -1.32812,0.34375 -0.73438,0.34375 -1.5,0.92187 -0.75,0.5625 -1.48438,1.29688 -0.71875,0.71875 -1.28125,1.48437 -0.5625,0.76563 -0.90625,1.51563 -0.34375,0.75 -0.34375,1.34375 0,0.53125 0.28125,0.82812 0.29688,0.29688 0.79688,0.29688 1.28125,0 2.79687,-1.35938 1.51563,-1.35937 3.03125,-4.07812 z"
       id="path114404" />
    <path
       d="m 282.04224,167.45758 q 0,-0.23437 0.20312,-0.45312 0.20313,-0.23438 0.53125,-0.40625 0.32813,-0.1875 0.73438,-0.29688 0.42187,-0.125 0.84375,-0.125 0.23437,0 0.39062,0.125 0.17188,0.125 0.29688,0.48438 0.125,0.34375 0.21875,0.98437 0.10937,0.625 0.20312,1.64063 0.0625,0.3125 0.10938,0.48437 0.0625,0.15625 0.15625,0.15625 0.14062,0 0.28125,-0.48437 1.14062,-3.29688 3.29687,-3.29688 1,0 1.8125,0.625 0.82813,0.625 1.53125,2.04688 0.71875,1.40625 1.35938,3.71875 0.64062,2.29687 1.28125,5.67187 0.0312,0.17188 0.0469,0.3125 0.0156,0.14063 0.0156,0.26563 0,0.35937 -0.17188,0.625 -0.15625,0.25 -0.42187,0.42187 -0.26563,0.15625 -0.59375,0.23438 -0.32813,0.0937 -0.65625,0.0937 -0.65625,0 -0.95313,-0.14063 -0.28125,-0.14062 -0.35937,-0.53125 -0.45313,-2.375 -0.89063,-4.21875 -0.42187,-1.84375 -0.84375,-3.09375 -0.40625,-1.26562 -0.8125,-1.92187 -0.40625,-0.65625 -0.8125,-0.65625 -0.40625,0 -0.76562,0.51562 -0.34375,0.5 -0.67188,1.57813 -0.32812,1.07812 -0.64062,2.73437 -0.29688,1.65625 -0.57813,3.95313 -0.0781,0.625 -0.625,1 -0.54687,0.375 -1.39062,0.375 -0.5625,0 -0.85938,-0.23438 -0.29687,-0.23437 -0.32812,-0.64062 -0.14063,-3.25 -0.3125,-5.34375 -0.15625,-2.10938 -0.29688,-3.375 -0.14062,-1.28125 -0.23437,-1.90625 -0.0937,-0.625 -0.0937,-0.92188 z"
       id="path114406" />
  </g>
  <text
     xml:space="preserve"
     style="font-size:32px;line-height:1.25;font-family:'Gochi Hand';-inkscape-font-specification:'Gochi Hand';letter-spacing:0px;word-spacing:0px"
     x="8.7416306"
     y="254.40926"
     id="text41028"><tspan
       sodipodi:role="line"
       id="tspan41026"
       x="8.7416306"
       y="254.40926" /></text>
  <g
     aria-label="ti l l  he came to a             of"
     id="text42082"
     style="font-size:32px;line-height:1.25;font-family:'Gochi Hand';-inkscape-font-specification:'Gochi Hand';letter-spacing:0px;word-spacing:0px">
    <path
       d="m 16.171186,231.34193 q 0,-0.82812 0.46875,-1.15625 0.46875,-0.34375 1.546875,-0.34375 0.390625,0 0.65625,0.0781 0.28125,0.0625 0.46875,0.25 0.203125,0.1875 0.3125,0.5 0.125,0.29687 0.203125,0.76562 0.1875,1.45313 0.40625,3 0.234375,1.54688 0.484375,3.10938 0.09375,0.70312 0.734375,0.70312 0.171875,0 0.5625,-0.0312 0.40625,-0.0469 0.953125,-0.0937 0.546875,-0.0625 1.171875,-0.125 0.640625,-0.0625 1.265625,-0.10937 0.640625,-0.0625 1.203125,-0.0937 0.578125,-0.0469 1.015625,-0.0469 0.34375,0 0.546875,0.14063 0.203125,0.125 0.3125,0.34375 0.125,0.20312 0.15625,0.46875 0.04687,0.25 0.04687,0.51562 0,0.23438 -0.09375,0.48438 -0.07813,0.25 -0.234375,0.45312 -0.140625,0.1875 -0.359375,0.3125 -0.21875,0.125 -0.5,0.125 -1.359375,0 -2.75,0.0937 -1.375,0.0781 -2.75,0.21875 -0.703125,0.0937 -0.703125,0.70313 0,0.0469 0.01563,0.125 0.01563,0.0625 0.01563,0.10937 0.1875,1.35938 0.34375,2.54688 0.171875,1.1875 0.28125,2.125 0.125,0.92187 0.1875,1.54687 0.07813,0.60938 0.07813,0.8125 0,0.5625 -0.109375,0.9375 -0.109375,0.39063 -0.359375,0.625 -0.25,0.25 -0.671875,0.34375 -0.40625,0.10938 -1.03125,0.10938 -0.59375,0 -0.875,-0.28125 -0.28125,-0.28125 -0.3125,-0.85938 -0.09375,-1.84375 -0.296875,-3.70312 -0.203125,-1.875 -0.46875,-3.73438 -0.140625,-0.67187 -0.703125,-0.67187 -0.04687,0 -0.109375,0.0156 -0.0625,0.0156 -0.109375,0.0156 -0.96875,0.21875 -1.828125,0.4375 -0.859375,0.21875 -1.609375,0.46875 -0.421875,0.14062 -0.75,0.20312 -0.328125,0.0469 -0.59375,0.0469 -0.359375,0 -0.53125,-0.3125 -0.171875,-0.32813 -0.171875,-0.8125 0,-0.17188 0.03125,-0.39063 0.03125,-0.23437 0.125,-0.45312 0.07813,-0.23438 0.25,-0.42188 0.15625,-0.20312 0.4375,-0.32812 0.65625,-0.26563 1.75,-0.54688 1.09375,-0.29687 2.46875,-0.54687 0.3125,-0.0781 0.484375,-0.25 0.1875,-0.1875 0.1875,-0.54688 0,-0.0781 0,-0.15625 0,-0.0937 -0.03125,-0.1875 -0.25,-1.4375 -0.484375,-2.60937 -0.21875,-1.1875 -0.390625,-2.03125 -0.15625,-0.84375 -0.25,-1.32813 -0.09375,-0.48437 -0.09375,-0.5625 z"
       id="path114427" />
    <path
       d="m 30.124311,233.45131 q -0.453125,0 -0.859375,-0.125 -0.390625,-0.14063 -0.6875,-0.375 -0.28125,-0.25 -0.453125,-0.57813 -0.171875,-0.32812 -0.171875,-0.71875 0,-0.65625 0.515625,-1.0625 0.53125,-0.40625 1.40625,-0.40625 0.40625,0 0.78125,0.15625 0.375,0.14063 0.65625,0.39063 0.296875,0.25 0.46875,0.59375 0.171875,0.32812 0.171875,0.6875 0,0.67187 -0.5,1.0625 -0.484375,0.375 -1.328125,0.375 z m -2.140625,4.76562 q 0,-0.54687 0.46875,-0.89062 0.484375,-0.35938 1.265625,-0.35938 1.40625,0 1.5,0.96875 0.0625,0.67188 0.125,1.51563 0.07813,0.84375 0.140625,1.79687 0.07813,0.9375 0.125,1.95313 0.0625,1 0.109375,1.98437 0.04687,0.96875 0.07813,1.875 0.03125,0.90625 0.03125,1.65625 0,0.78125 -0.5625,1.17188 -0.546875,0.39062 -1.609375,0.39062 -0.484375,0 -0.765625,-0.23437 -0.265625,-0.21875 -0.265625,-0.65625 0,-2.15625 -0.109375,-4.03125 -0.09375,-1.89063 -0.21875,-3.35938 -0.109375,-1.46875 -0.21875,-2.4375 -0.09375,-0.98437 -0.09375,-1.34375 z"
       id="path114429" />
    <path
       d="m 41.452436,231.59193 q 0,-0.8125 0.46875,-1.15625 0.46875,-0.34375 1.546875,-0.34375 0.375,0 0.65625,0.0781 0.28125,0.0781 0.46875,0.26562 0.1875,0.17188 0.296875,0.48438 0.125,0.29687 0.203125,0.76562 0.203125,1.39063 0.40625,2.92188 0.21875,1.51562 0.40625,3.03125 0.203125,1.5 0.375,2.9375 0.171875,1.42187 0.296875,2.65625 0.140625,1.21875 0.203125,2.17187 0.07813,0.9375 0.07813,1.48438 0,0.5625 -0.109375,0.95312 -0.09375,0.39063 -0.34375,0.625 -0.234375,0.23438 -0.625,0.34375 -0.375,0.0937 -0.9375,0.0937 -0.546875,0 -0.875,-0.28125 -0.3125,-0.28125 -0.3125,-0.85937 0,-0.59375 -0.09375,-1.57813 -0.09375,-1 -0.25,-2.21875 -0.15625,-1.21875 -0.359375,-2.59375 -0.1875,-1.375 -0.40625,-2.71875 -0.203125,-1.34375 -0.40625,-2.57812 -0.1875,-1.25 -0.34375,-2.20313 -0.15625,-0.96875 -0.25,-1.57812 -0.09375,-0.625 -0.09375,-0.70313 z"
       id="path114431" />
    <path
       d="m 56.077436,231.59193 q 0,-0.8125 0.46875,-1.15625 0.46875,-0.34375 1.546875,-0.34375 0.375,0 0.65625,0.0781 0.28125,0.0781 0.46875,0.26562 0.1875,0.17188 0.296875,0.48438 0.125,0.29687 0.203125,0.76562 0.203125,1.39063 0.40625,2.92188 0.21875,1.51562 0.40625,3.03125 0.203125,1.5 0.375,2.9375 0.171875,1.42187 0.296875,2.65625 0.140625,1.21875 0.203125,2.17187 0.07813,0.9375 0.07813,1.48438 0,0.5625 -0.109375,0.95312 -0.09375,0.39063 -0.34375,0.625 -0.234375,0.23438 -0.625,0.34375 -0.375,0.0937 -0.9375,0.0937 -0.546875,0 -0.875,-0.28125 -0.3125,-0.28125 -0.3125,-0.85937 0,-0.59375 -0.09375,-1.57813 -0.09375,-1 -0.25,-2.21875 -0.15625,-1.21875 -0.359375,-2.59375 -0.1875,-1.375 -0.40625,-2.71875 -0.203125,-1.34375 -0.40625,-2.57812 -0.1875,-1.25 -0.34375,-2.20313 -0.15625,-0.96875 -0.25,-1.57812 -0.09375,-0.625 -0.09375,-0.70313 z"
       id="path114433" />
    <path
       d="m 78.686811,234.34193 q 0,-1.6875 2.1875,-1.6875 0.375,0 0.65625,0.20313 0.28125,0.20312 0.328125,0.5625 0.140625,0.95312 0.25,1.89062 0.109375,0.9375 0.203125,2.10938 0.109375,1.15625 0.203125,2.6875 0.109375,1.51562 0.234375,3.625 0,0.21875 0.0625,0.3125 0.07813,0.0937 0.171875,0.0937 0.140625,0 0.28125,-0.28125 0.53125,-1.17188 1.1875,-2.09375 0.65625,-0.9375 1.40625,-1.57813 0.75,-0.65625 1.578125,-0.98437 0.84375,-0.34375 1.71875,-0.34375 1.15625,0 2.09375,0.65625 0.9375,0.65625 1.59375,1.85937 0.65625,1.20313 1.015625,2.92188 0.359375,1.70312 0.359375,3.8125 0,0.57812 -0.09375,0.95312 -0.07813,0.35938 -0.28125,0.57813 -0.203125,0.21875 -0.5625,0.29687 -0.359375,0.0937 -0.890625,0.0937 -0.734375,0 -1.0625,-0.28125 -0.3125,-0.28125 -0.3125,-0.875 0,-1.46875 -0.203125,-2.76562 -0.1875,-1.3125 -0.53125,-2.29688 -0.34375,-0.98437 -0.8125,-1.5625 -0.453125,-0.57812 -0.984375,-0.57812 -1.203125,0 -2.40625,1.95312 -1.1875,1.95313 -2.484375,5.89063 -0.125,0.35937 -0.28125,0.59375 -0.15625,0.23437 -0.375,0.375 -0.203125,0.14062 -0.5,0.1875 -0.296875,0.0625 -0.703125,0.0625 -0.828125,0 -1.1875,-0.3125 -0.34375,-0.3125 -0.375,-1.03125 -0.09375,-2.71875 -0.34375,-5.1875 -0.234375,-2.48438 -0.5,-4.48438 -0.25,-2.01562 -0.453125,-3.40625 -0.1875,-1.40625 -0.1875,-1.96875 z"
       id="path114435" />
    <path
       d="m 109.60869,245.96693 q 0.45312,-0.39062 0.89062,-0.39062 0.25,0 0.45313,0.125 0.20312,0.125 0.45312,0.39062 0.23438,0.35938 0.32813,0.59375 0.10937,0.21875 0.10937,0.4375 0,0.46875 -0.46875,0.89063 -0.75,0.625 -1.625,1.125 -0.875,0.48437 -1.82812,0.82812 -0.95313,0.34375 -1.96875,0.51563 -1.01563,0.1875 -2.01563,0.1875 -1.26562,0 -2.375,-0.32813 -1.10937,-0.3125 -1.984374,-0.90625 -0.859375,-0.59375 -1.453125,-1.42187 -0.59375,-0.84375 -0.84375,-1.89063 -0.140625,-0.4375 -0.265625,-0.5625 -0.109375,-0.14062 -0.375,-0.14062 -0.578125,0 -0.890625,-0.28125 -0.3125,-0.28125 -0.3125,-0.8125 0,-0.21875 0.03125,-0.28125 l 0.03125,-0.3125 q 0.07813,-0.5625 0.296875,-0.8125 0.234375,-0.25 0.71875,-0.25 h 0.234375 q 0.65625,0 0.921875,-0.60938 0.484375,-1.07812 1.234375,-1.96875 0.75,-0.89062 1.687499,-1.51562 0.9375,-0.64063 2,-0.98438 1.07813,-0.35937 2.1875,-0.35937 1.15625,0 2.15625,0.34375 1.01563,0.32812 1.76563,0.92187 0.75,0.59375 1.17187,1.39063 0.4375,0.79687 0.4375,1.71875 0,0.64062 -0.25,1.17187 -0.25,0.53125 -0.71875,0.9375 -0.46875,0.39063 -1.14062,0.64063 -0.65625,0.25 -1.5,0.32812 l -5.42188,0.54688 q -0.3125,0 -0.51562,0.15625 -0.1875,0.15625 -0.1875,0.42187 0,0.40625 0.29687,0.78125 0.3125,0.375 0.8125,0.67188 0.51563,0.28125 1.17188,0.45312 0.67187,0.17188 1.375,0.17188 0.67187,0 1.375,-0.125 0.71875,-0.14063 1.40625,-0.39063 0.70312,-0.25 1.35937,-0.59375 0.65625,-0.35937 1.23438,-0.8125 z m -3.48438,-4.03125 q 0.23438,-0.0469 0.40625,-0.21875 0.17188,-0.1875 0.17188,-0.45312 0,-0.23438 -0.17188,-0.4375 -0.17187,-0.20313 -0.46875,-0.35938 -0.29687,-0.17187 -0.6875,-0.26562 -0.39062,-0.0937 -0.82812,-0.0937 -0.64063,0 -1.3125,0.1875 -0.67188,0.1875 -1.21875,0.5 -0.54688,0.29687 -0.89063,0.67187 -0.34375,0.35938 -0.34375,0.71875 0,0.35938 0.4375,0.35938 0.26563,0 0.85938,-0.0625 0.59375,-0.0625 1.3125,-0.14063 0.71875,-0.0937 1.45312,-0.20312 0.73438,-0.10938 1.28125,-0.20313 z"
       id="path114437" />
    <path
       d="m 125.92119,236.49818 q 0.8125,0 1.57812,0.23438 0.76563,0.23437 1.34375,0.64062 0.59375,0.39063 0.95313,0.90625 0.35937,0.5 0.35937,1.03125 0,0.34375 -0.14062,0.67188 -0.14063,0.3125 -0.375,0.5625 -0.23438,0.23437 -0.53125,0.39062 -0.29688,0.14063 -0.625,0.14063 -0.35938,0 -0.65625,-0.26563 -0.29688,-0.28125 -0.64063,-0.60937 -0.32812,-0.34375 -0.75,-0.60938 -0.40625,-0.28125 -0.98437,-0.28125 -0.5625,0 -1.01563,0.26563 -0.45312,0.26562 -0.76562,0.75 -0.29688,0.46875 -0.46875,1.125 -0.15625,0.64062 -0.15625,1.40625 0,2.1875 0.82812,3.34375 0.82813,1.14062 2.375,1.14062 0.73438,0 1.25,-0.23437 0.53125,-0.23438 0.92188,-0.51563 0.40625,-0.28125 0.73437,-0.51562 0.32813,-0.23438 0.67188,-0.23438 0.1875,0 0.375,0.125 0.1875,0.10938 0.32812,0.29688 0.15625,0.17187 0.25,0.39062 0.10938,0.21875 0.10938,0.4375 0,0.51563 -0.51563,1.0625 -0.5,0.54688 -1.29687,1 -0.79688,0.4375 -1.78125,0.71875 -0.96875,0.28125 -1.89063,0.28125 -1.23437,0 -2.26562,-0.48437 -1.03125,-0.46875 -1.78125,-1.3125 -0.75,-0.85938 -1.17188,-2.04688 -0.40625,-1.1875 -0.40625,-2.625 0,-1.5625 0.45313,-2.875 0.46875,-1.3125 1.28125,-2.26562 0.82812,-0.96875 1.95312,-1.5 1.125,-0.54688 2.45313,-0.54688 z"
       id="path114439" />
    <path
       d="m 141.09306,235.73256 q 0.85938,0 1.65625,0.26562 0.79688,0.26563 1.40625,0.73438 0.60938,0.46875 0.96875,1.125 0.375,0.65625 0.375,1.45312 0,0.32813 -0.15625,0.64063 -0.14062,0.29687 -0.39062,0.53125 -0.25,0.21875 -0.57813,0.35937 -0.3125,0.125 -0.65625,0.125 -0.0312,0 -0.0625,0.0156 -0.0156,0 -0.0469,0 -0.0312,0.0156 -0.0625,0.0156 l 0.0625,1.25 q 0.0625,2.23438 0.625,3.26563 0.57812,1.03125 1.5,1.03125 0.32812,0 0.57812,-0.0625 0.26563,-0.0625 0.48438,-0.14063 0.23437,-0.0937 0.4375,-0.15625 0.20312,-0.0625 0.40625,-0.0625 0.35937,0 0.625,0.3125 0.28125,0.3125 0.28125,0.75 0,0.4375 -0.34375,0.875 -0.32813,0.4375 -0.875,0.79688 -0.54688,0.34375 -1.23438,0.5625 -0.6875,0.21875 -1.39062,0.21875 -1.21875,0 -2.14063,-1 -0.92187,-1.01563 -1.3125,-2.96875 -0.0937,-0.3125 -0.25,-0.3125 -0.1875,0 -0.32812,0.1875 -1.54688,1.95312 -3.29688,2.9375 -1.75,0.96875 -3.45312,0.96875 -0.79688,0 -1.4375,-0.23438 -0.64063,-0.23437 -1.09375,-0.65625 -0.4375,-0.4375 -0.6875,-1.04687 -0.23438,-0.625 -0.23438,-1.39063 0,-1.07812 0.46875,-2.26562 0.48438,-1.1875 1.29688,-2.34375 0.8125,-1.15625 1.875,-2.20313 1.07812,-1.04687 2.25,-1.84375 1.1875,-0.79687 2.40625,-1.26562 1.21875,-0.46875 2.32812,-0.46875 z m -0.51562,5.40625 q 0.28125,-0.53125 0.51562,-0.76563 0.23438,-0.25 0.67188,-0.32812 0.34375,-0.0469 0.34375,-0.21875 0,-0.125 -0.0937,-0.26563 -0.29688,-0.40625 -0.625,-0.70312 -0.32813,-0.3125 -0.875,-0.3125 -0.59375,0 -1.32813,0.34375 -0.73437,0.34375 -1.5,0.92187 -0.75,0.5625 -1.48437,1.29688 -0.71875,0.71875 -1.28125,1.48437 -0.5625,0.76563 -0.90625,1.51563 -0.34375,0.75 -0.34375,1.34375 0,0.53125 0.28125,0.82812 0.29687,0.29688 0.79687,0.29688 1.28125,0 2.79688,-1.35938 1.51562,-1.35937 3.03125,-4.07812 z"
       id="path114441" />
    <path
       d="m 150.43681,250.06068 q -0.10937,-2.07812 -0.35937,-3.82812 -0.23438,-1.76563 -0.5,-3.07813 -0.25,-1.3125 -0.45313,-2.125 -0.1875,-0.8125 -0.1875,-1.01562 0,-0.29688 0.21875,-0.57813 0.23438,-0.28125 0.57813,-0.48437 0.34375,-0.21875 0.73437,-0.34375 0.40625,-0.125 0.73438,-0.125 0.26562,0 0.45312,0.0937 0.20313,0.0937 0.28125,0.3125 0.0781,0.26562 0.14063,0.5625 0.0781,0.28125 0.15625,0.6875 0.0937,0.57812 0.25,0.57812 0.17187,0 0.39062,-0.51562 0.3125,-0.71875 0.67188,-1.1875 0.35937,-0.46875 0.76562,-0.73438 0.42188,-0.28125 0.85938,-0.39062 0.45312,-0.10938 0.9375,-0.10938 1.46875,0 2.48437,1.15625 1.03125,1.15625 1.60938,3.34375 0.0781,0.25 0.14062,0.32813 0.0625,0.0625 0.14063,0.0625 0.0781,0 0.15625,-0.0625 0.0937,-0.0781 0.17187,-0.29688 0.375,-1.01562 0.875,-1.71875 0.5,-0.71875 1.03125,-1.15625 0.54688,-0.45312 1.10938,-0.65625 0.5625,-0.20312 1.07812,-0.20312 0.95313,0 1.71875,0.70312 0.78125,0.6875 1.375,2.14063 0.60938,1.4375 1.04688,3.65625 0.45312,2.20312 0.75,5.23437 0,0.84375 -0.51563,1.17188 -0.51562,0.34375 -1.40625,0.34375 -0.57812,0 -0.90625,-0.25 -0.32812,-0.25 -0.375,-0.65625 -0.20312,-2.17188 -0.45312,-3.85938 -0.23438,-1.70312 -0.51563,-2.85937 -0.28125,-1.17188 -0.625,-1.78125 -0.32812,-0.60938 -0.73437,-0.60938 -0.20313,0 -0.51563,0.29688 -0.29687,0.29687 -0.64062,1.09375 -0.34375,0.78125 -0.71875,2.15625 -0.375,1.35937 -0.71875,3.48437 -0.0937,0.59375 -0.57813,0.90625 -0.46875,0.3125 -1.15625,0.3125 -0.79687,0 -1.10937,-0.25 -0.29688,-0.25 -0.32813,-0.84375 -0.0625,-1.03125 -0.21875,-2.04687 -0.14062,-1.03125 -0.35937,-1.95313 -0.21875,-0.9375 -0.48438,-1.71875 -0.26562,-0.79687 -0.5625,-1.375 -0.29687,-0.59375 -0.60937,-0.92187 -0.3125,-0.32813 -0.60938,-0.32813 -0.39062,0 -0.76562,0.54688 -0.35938,0.54687 -0.65625,1.54687 -0.28125,1 -0.45313,2.40625 -0.17187,1.40625 -0.17187,3.14063 0,0.29687 0.0156,0.59375 0.0156,0.28125 0.0156,0.59375 0,0.46875 -0.15625,0.76562 -0.14063,0.29688 -0.42188,0.46875 -0.26562,0.17188 -0.625,0.23438 -0.35937,0.0625 -0.78125,0.0625 -0.39062,0 -0.625,-0.0625 -0.23437,-0.0469 -0.35937,-0.15625 -0.125,-0.10938 -0.17188,-0.29688 -0.0469,-0.17187 -0.0625,-0.40625 z"
       id="path114443" />
    <path
       d="m 185.06181,245.96693 q 0.45313,-0.39062 0.89063,-0.39062 0.25,0 0.45312,0.125 0.20313,0.125 0.45313,0.39062 0.23437,0.35938 0.32812,0.59375 0.10938,0.21875 0.10938,0.4375 0,0.46875 -0.46875,0.89063 -0.75,0.625 -1.625,1.125 -0.875,0.48437 -1.82813,0.82812 -0.95312,0.34375 -1.96875,0.51563 -1.01562,0.1875 -2.01562,0.1875 -1.26563,0 -2.375,-0.32813 -1.10938,-0.3125 -1.98438,-0.90625 -0.85937,-0.59375 -1.45312,-1.42187 -0.59375,-0.84375 -0.84375,-1.89063 -0.14063,-0.4375 -0.26563,-0.5625 -0.10937,-0.14062 -0.375,-0.14062 -0.57812,0 -0.89062,-0.28125 -0.3125,-0.28125 -0.3125,-0.8125 0,-0.21875 0.0312,-0.28125 l 0.0312,-0.3125 q 0.0781,-0.5625 0.29687,-0.8125 0.23438,-0.25 0.71875,-0.25 h 0.23438 q 0.65625,0 0.92187,-0.60938 0.48438,-1.07812 1.23438,-1.96875 0.75,-0.89062 1.6875,-1.51562 0.9375,-0.64063 2,-0.98438 1.07812,-0.35937 2.1875,-0.35937 1.15625,0 2.15625,0.34375 1.01562,0.32812 1.76562,0.92187 0.75,0.59375 1.17188,1.39063 0.4375,0.79687 0.4375,1.71875 0,0.64062 -0.25,1.17187 -0.25,0.53125 -0.71875,0.9375 -0.46875,0.39063 -1.14063,0.64063 -0.65625,0.25 -1.5,0.32812 l -5.42187,0.54688 q -0.3125,0 -0.51563,0.15625 -0.1875,0.15625 -0.1875,0.42187 0,0.40625 0.29688,0.78125 0.3125,0.375 0.8125,0.67188 0.51562,0.28125 1.17187,0.45312 0.67188,0.17188 1.375,0.17188 0.67188,0 1.375,-0.125 0.71875,-0.14063 1.40625,-0.39063 0.70313,-0.25 1.35938,-0.59375 0.65625,-0.35937 1.23437,-0.8125 z m -3.48437,-4.03125 q 0.23437,-0.0469 0.40625,-0.21875 0.17187,-0.1875 0.17187,-0.45312 0,-0.23438 -0.17187,-0.4375 -0.17188,-0.20313 -0.46875,-0.35938 -0.29688,-0.17187 -0.6875,-0.26562 -0.39063,-0.0937 -0.82813,-0.0937 -0.64062,0 -1.3125,0.1875 -0.67187,0.1875 -1.21875,0.5 -0.54687,0.29687 -0.89062,0.67187 -0.34375,0.35938 -0.34375,0.71875 0,0.35938 0.4375,0.35938 0.26562,0 0.85937,-0.0625 0.59375,-0.0625 1.3125,-0.14063 0.71875,-0.0937 1.45313,-0.20312 0.73437,-0.10938 1.28125,-0.20313 z"
       id="path114445" />
    <path
       d="m 197.31181,231.34193 q 0,-0.82812 0.46875,-1.15625 0.46875,-0.34375 1.54688,-0.34375 0.39062,0 0.65625,0.0781 0.28125,0.0625 0.46875,0.25 0.20312,0.1875 0.3125,0.5 0.125,0.29687 0.20312,0.76562 0.1875,1.45313 0.40625,3 0.23438,1.54688 0.48438,3.10938 0.0937,0.70312 0.73437,0.70312 0.17188,0 0.5625,-0.0312 0.40625,-0.0469 0.95313,-0.0937 0.54687,-0.0625 1.17187,-0.125 0.64063,-0.0625 1.26563,-0.10937 0.64062,-0.0625 1.20312,-0.0937 0.57813,-0.0469 1.01563,-0.0469 0.34375,0 0.54687,0.14063 0.20313,0.125 0.3125,0.34375 0.125,0.20312 0.15625,0.46875 0.0469,0.25 0.0469,0.51562 0,0.23438 -0.0937,0.48438 -0.0781,0.25 -0.23438,0.45312 -0.14062,0.1875 -0.35937,0.3125 -0.21875,0.125 -0.5,0.125 -1.35938,0 -2.75,0.0937 -1.375,0.0781 -2.75,0.21875 -0.70313,0.0937 -0.70313,0.70313 0,0.0469 0.0156,0.125 0.0156,0.0625 0.0156,0.10937 0.1875,1.35938 0.34375,2.54688 0.17188,1.1875 0.28125,2.125 0.125,0.92187 0.1875,1.54687 0.0781,0.60938 0.0781,0.8125 0,0.5625 -0.10938,0.9375 -0.10937,0.39063 -0.35937,0.625 -0.25,0.25 -0.67188,0.34375 -0.40625,0.10938 -1.03125,0.10938 -0.59375,0 -0.875,-0.28125 -0.28125,-0.28125 -0.3125,-0.85938 -0.0937,-1.84375 -0.29687,-3.70312 -0.20313,-1.875 -0.46875,-3.73438 -0.14063,-0.67187 -0.70313,-0.67187 -0.0469,0 -0.10937,0.0156 -0.0625,0.0156 -0.10938,0.0156 -0.96875,0.21875 -1.82812,0.4375 -0.85938,0.21875 -1.60938,0.46875 -0.42187,0.14062 -0.75,0.20312 -0.32812,0.0469 -0.59375,0.0469 -0.35937,0 -0.53125,-0.3125 -0.17187,-0.32813 -0.17187,-0.8125 0,-0.17188 0.0312,-0.39063 0.0312,-0.23437 0.125,-0.45312 0.0781,-0.23438 0.25,-0.42188 0.15625,-0.20312 0.4375,-0.32812 0.65625,-0.26563 1.75,-0.54688 1.09375,-0.29687 2.46875,-0.54687 0.3125,-0.0781 0.48437,-0.25 0.1875,-0.1875 0.1875,-0.54688 0,-0.0781 0,-0.15625 0,-0.0937 -0.0312,-0.1875 -0.25,-1.4375 -0.48437,-2.60937 -0.21875,-1.1875 -0.39063,-2.03125 -0.15625,-0.84375 -0.25,-1.32813 -0.0937,-0.48437 -0.0937,-0.5625 z"
       id="path114447" />
    <path
       d="m 209.12431,244.20131 q 0,-0.26563 0.0625,-0.59375 0.0625,-0.32813 0.0625,-0.71875 0,-0.26563 -0.23437,-0.40625 -0.21875,-0.14063 -0.5,-0.3125 -0.28125,-0.17188 -0.51563,-0.4375 -0.21875,-0.26563 -0.21875,-0.76563 0,-0.35937 0.1875,-0.71875 0.20313,-0.35937 0.57813,-0.65625 0.92187,-0.6875 1.90625,-1.23437 1,-0.54688 1.98437,-0.92188 1,-0.375 1.96875,-0.57812 0.96875,-0.20313 1.85938,-0.20313 1.5,0 2.8125,0.5625 1.32812,0.54688 2.29687,1.51563 0.98438,0.95312 1.54688,2.25 0.57812,1.28125 0.57812,2.75 0,1.4375 -0.60937,2.73437 -0.59375,1.28125 -1.60938,2.25 -1.01562,0.96875 -2.39062,1.53125 -1.35938,0.57813 -2.875,0.57813 -1.48438,0 -2.75,-0.5 -1.26563,-0.5 -2.1875,-1.375 -0.92188,-0.89063 -1.4375,-2.09375 -0.51563,-1.21875 -0.51563,-2.65625 z m 7.23438,3.8125 q 0.65625,0 1.35937,-0.26563 0.70313,-0.26562 1.28125,-0.76562 0.59375,-0.51563 0.96875,-1.25 0.39063,-0.73438 0.39063,-1.65625 0,-0.9375 -0.34375,-1.75 -0.34375,-0.8125 -0.95313,-1.40625 -0.59375,-0.60938 -1.42187,-0.95313 -0.8125,-0.34375 -1.76563,-0.34375 -1.73437,0 -2.65625,0.90625 -0.92187,0.89063 -0.92187,2.75 0,1.01563 0.29687,1.89063 0.3125,0.85937 0.85938,1.5 0.54687,0.625 1.28125,0.98437 0.75,0.35938 1.625,0.35938 z"
       id="path114449" />
    <path
       d="m 242.92119,235.73256 q 0.85937,0 1.65625,0.26562 0.79687,0.26563 1.40625,0.73438 0.60937,0.46875 0.96875,1.125 0.375,0.65625 0.375,1.45312 0,0.32813 -0.15625,0.64063 -0.14063,0.29687 -0.39063,0.53125 -0.25,0.21875 -0.57812,0.35937 -0.3125,0.125 -0.65625,0.125 -0.0312,0 -0.0625,0.0156 -0.0156,0 -0.0469,0 -0.0312,0.0156 -0.0625,0.0156 l 0.0625,1.25 q 0.0625,2.23438 0.625,3.26563 0.57813,1.03125 1.5,1.03125 0.32813,0 0.57813,-0.0625 0.26562,-0.0625 0.48437,-0.14063 0.23438,-0.0937 0.4375,-0.15625 0.20313,-0.0625 0.40625,-0.0625 0.35938,0 0.625,0.3125 0.28125,0.3125 0.28125,0.75 0,0.4375 -0.34375,0.875 -0.32812,0.4375 -0.875,0.79688 -0.54687,0.34375 -1.23437,0.5625 -0.6875,0.21875 -1.39063,0.21875 -1.21875,0 -2.14062,-1 -0.92188,-1.01563 -1.3125,-2.96875 -0.0937,-0.3125 -0.25,-0.3125 -0.1875,0 -0.32813,0.1875 -1.54687,1.95312 -3.29687,2.9375 -1.75,0.96875 -3.45313,0.96875 -0.79687,0 -1.4375,-0.23438 -0.64062,-0.23437 -1.09375,-0.65625 -0.4375,-0.4375 -0.6875,-1.04687 -0.23437,-0.625 -0.23437,-1.39063 0,-1.07812 0.46875,-2.26562 0.48437,-1.1875 1.29687,-2.34375 0.8125,-1.15625 1.875,-2.20313 1.07813,-1.04687 2.25,-1.84375 1.1875,-0.79687 2.40625,-1.26562 1.21875,-0.46875 2.32813,-0.46875 z m -0.51563,5.40625 q 0.28125,-0.53125 0.51563,-0.76563 0.23437,-0.25 0.67187,-0.32812 0.34375,-0.0469 0.34375,-0.21875 0,-0.125 -0.0937,-0.26563 -0.29687,-0.40625 -0.625,-0.70312 -0.32812,-0.3125 -0.875,-0.3125 -0.59375,0 -1.32812,0.34375 -0.73438,0.34375 -1.5,0.92187 -0.75,0.5625 -1.48438,1.29688 -0.71875,0.71875 -1.28125,1.48437 -0.5625,0.76563 -0.90625,1.51563 -0.34375,0.75 -0.34375,1.34375 0,0.53125 0.28125,0.82812 0.29688,0.29688 0.79688,0.29688 1.28125,0 2.79687,-1.35938 1.51563,-1.35937 3.03125,-4.07812 z"
       id="path114451" />
    <path
       d="m 349.59306,244.20131 q 0,-0.26563 0.0625,-0.59375 0.0625,-0.32813 0.0625,-0.71875 0,-0.26563 -0.23437,-0.40625 -0.21875,-0.14063 -0.5,-0.3125 -0.28125,-0.17188 -0.51563,-0.4375 -0.21875,-0.26563 -0.21875,-0.76563 0,-0.35937 0.1875,-0.71875 0.20313,-0.35937 0.57813,-0.65625 0.92187,-0.6875 1.90625,-1.23437 1,-0.54688 1.98437,-0.92188 1,-0.375 1.96875,-0.57812 0.96875,-0.20313 1.85938,-0.20313 1.5,0 2.8125,0.5625 1.32812,0.54688 2.29687,1.51563 0.98438,0.95312 1.54688,2.25 0.57812,1.28125 0.57812,2.75 0,1.4375 -0.60937,2.73437 -0.59375,1.28125 -1.60938,2.25 -1.01562,0.96875 -2.39062,1.53125 -1.35938,0.57813 -2.875,0.57813 -1.48438,0 -2.75,-0.5 -1.26563,-0.5 -2.1875,-1.375 -0.92188,-0.89063 -1.4375,-2.09375 -0.51563,-1.21875 -0.51563,-2.65625 z m 7.23438,3.8125 q 0.65625,0 1.35937,-0.26563 0.70313,-0.26562 1.28125,-0.76562 0.59375,-0.51563 0.96875,-1.25 0.39063,-0.73438 0.39063,-1.65625 0,-0.9375 -0.34375,-1.75 -0.34375,-0.8125 -0.95313,-1.40625 -0.59375,-0.60938 -1.42187,-0.95313 -0.8125,-0.34375 -1.76563,-0.34375 -1.73437,0 -2.65625,0.90625 -0.92187,0.89063 -0.92187,2.75 0,1.01563 0.29687,1.89063 0.3125,0.85937 0.85938,1.5 0.54687,0.625 1.28125,0.98437 0.75,0.35938 1.625,0.35938 z"
       id="path114453" />
    <path
       d="m 364.67119,240.77943 q -0.35938,-0.0312 -0.57813,-0.46875 -0.21875,-0.4375 -0.21875,-0.96875 0,-0.25 0.0469,-0.48437 0.0312,-0.25 0.125,-0.4375 0.0937,-0.1875 0.23437,-0.29688 0.14063,-0.125 0.32813,-0.125 0.57812,0 1.32812,-0.0312 0.75,-0.0469 1.60938,-0.0937 0.4375,-0.0469 0.48437,-0.51562 0.14063,-2.26563 0.39063,-3.90625 0.25,-1.64063 0.60937,-2.76563 0.35938,-1.14062 0.8125,-1.84375 0.46875,-0.70312 1.03125,-1.07812 0.17188,-0.125 0.40625,-0.25 0.23438,-0.14063 0.4375,-0.14063 0.39063,0 0.8125,0.20313 0.4375,0.1875 0.79688,0.5 0.375,0.29687 0.60937,0.6875 0.23438,0.375 0.23438,0.75 0,0.14062 -0.0625,0.23437 -0.0625,0.0781 -0.15625,0.15625 -0.60938,0.45313 -1.07813,1.01563 -0.46875,0.5625 -0.79687,1.375 -0.32813,0.8125 -0.54688,1.95312 -0.21875,1.14063 -0.32812,2.75 0,0.25 0.0781,0.375 0.0937,0.10938 0.32813,0.10938 0.60937,0 1.21875,-0.0937 0.625,-0.0937 1.1875,-0.1875 0.5625,-0.10938 1.0625,-0.20313 0.5,-0.0937 0.89062,-0.0937 0.28125,0 0.40625,0.34375 0.14063,0.32813 0.14063,0.8125 0,0.28125 -0.0469,0.57813 -0.0469,0.29687 -0.15625,0.53125 -0.0937,0.23437 -0.25,0.40625 -0.15625,0.15625 -0.39062,0.1875 l -4.15625,0.4375 q -0.32813,0.0469 -0.40625,0.26562 -0.0625,0.21875 -0.0625,0.60938 0,3.45312 0.17187,5.9375 0.17188,2.48437 0.375,4.17187 0.21875,1.70313 0.39063,2.67188 0.17187,0.98437 0.17187,1.42187 0,0.32813 -0.26562,0.59375 -0.25,0.26563 -0.65625,0.45313 -0.39063,0.1875 -0.85938,0.28125 -0.46875,0.10937 -0.875,0.10937 -0.39062,0 -0.70312,-0.14062 -0.29688,-0.125 -0.34375,-0.4375 -0.15625,-1.09375 -0.26563,-2.40625 -0.10937,-1.29688 -0.1875,-2.89063 -0.0625,-1.57812 -0.0937,-3.45312 -0.0312,-1.89063 -0.0312,-4.14063 0,-0.57812 0,-1.125 0,-0.54687 0.0312,-1.09375 0,-0.46875 -0.51562,-0.46875 l -2.71875,0.21875 z"
       id="path114455" />
  </g>
  <g
     aria-label="just                   on a  vine"
     id="text49442"
     style="font-size:32px;line-height:1.25;font-family:'Gochi Hand';-inkscape-font-specification:'Gochi Hand';letter-spacing:0px;word-spacing:0px">
    <path
       d="m 111.31046,322.91867 q 0.40625,0 0.67188,-0.125 0.26562,-0.10937 0.42187,-0.42187 0.15625,-0.3125 0.21875,-0.84375 0.0625,-0.53125 0.0625,-1.35938 0,-3.20312 -0.23437,-5.51562 -0.21875,-2.3125 -0.48438,-3.90625 -0.26562,-1.59375 -0.5,-2.54688 -0.21875,-0.96875 -0.21875,-1.46875 0,-0.53125 0.48438,-0.85937 0.48437,-0.32813 1.32812,-0.35938 1.20313,0 1.45313,0.70313 0.32812,1.10937 0.59375,2.5625 0.28125,1.4375 0.46875,3.10937 0.20312,1.67188 0.29687,3.5 0.10938,1.8125 0.10938,3.65625 0,1.95313 -0.23438,3.28125 -0.21875,1.34375 -0.76562,2.15625 -0.53125,0.8125 -1.40625,1.15625 -0.875,0.35938 -2.17188,0.35938 -0.76562,0 -1.60937,-0.20313 -0.82813,-0.1875 -1.625,-0.51562 -0.79688,-0.3125 -1.5,-0.75 -0.71875,-0.4375 -1.25,-0.92188 -0.54688,-0.46875 -0.85938,-0.96875 -0.32812,-0.5 -0.32812,-0.96875 0,-0.23437 0.1875,-0.53125 0.1875,-0.29687 0.46875,-0.5625 0.26562,-0.25 0.57812,-0.42187 0.3125,-0.17188 0.5625,-0.17188 0.29688,0 0.625,0.21875 0.3125,0.21875 0.6875,0.54688 0.35938,0.32812 0.78125,0.70312 0.40625,0.375 0.89063,0.70313 0.5,0.32812 1.0625,0.54687 0.5625,0.21875 1.23437,0.21875 z m 2.04688,-20 q -0.45313,-0.0156 -0.84375,-0.15625 -0.375,-0.14062 -0.65625,-0.375 -0.28125,-0.25 -0.45313,-0.5625 -0.15625,-0.32812 -0.15625,-0.70312 0,-0.65625 0.5,-1.0625 0.5,-0.40625 1.34375,-0.40625 0.42188,0 0.79688,0.15625 0.39062,0.14062 0.6875,0.40625 0.29687,0.25 0.46875,0.59375 0.17187,0.32812 0.17187,0.70312 0,0.67188 -0.48437,1.04688 -0.48438,0.35937 -1.375,0.35937 z"
       id="path114476" />
    <path
       d="m 122.66984,312.04367 q 0,2.09375 0.64062,3.23438 0.64063,1.14062 1.85938,1.14062 0.76562,0 1.40625,-0.45312 0.65625,-0.45313 1.125,-1.26563 0.46875,-0.8125 0.71875,-1.92187 0.26562,-1.125 0.26562,-2.4375 0,-0.79688 -0.0625,-1.375 -0.0625,-0.59375 -0.14062,-1.04688 -0.0625,-0.46875 -0.125,-0.82812 -0.0625,-0.35938 -0.0625,-0.6875 0,-0.5 0.42187,-0.71875 0.42188,-0.23438 1.34375,-0.23438 1.17188,0 1.8125,0.53125 0.65625,0.53125 0.65625,1.54688 0,2.76562 -0.54687,4.96875 -0.53125,2.20312 -1.54688,3.75 -1,1.53125 -2.4375,2.35937 -1.4375,0.82813 -3.21875,0.82813 -1.26562,0 -2.34375,-0.53125 -1.0625,-0.51563 -1.84375,-1.45313 -0.76562,-0.95312 -1.20312,-2.25 -0.4375,-1.3125 -0.4375,-2.875 0,-0.59375 0.0312,-1.26562 0.0312,-0.67188 0.0937,-1.4375 0.0625,-0.78125 0.15625,-1.6875 0.10937,-0.90625 0.23437,-1.96875 0.0469,-0.45313 0.42188,-0.71875 0.39062,-0.28125 0.98437,-0.28125 0.53125,0 1,0.10937 0.46875,0.10938 0.79688,0.29688 0.34375,0.1875 0.53125,0.4375 0.20312,0.25 0.20312,0.53125 0,0.28125 -0.125,0.89062 -0.10937,0.59375 -0.25,1.375 -0.125,0.76563 -0.25,1.67188 -0.10937,0.89062 -0.10937,1.76562 z"
       id="path114478" />
    <path
       d="m 138.29484,304.01242 q 1.04687,0 2.15625,0.28125 1.10937,0.26563 2.03125,0.70313 0.92187,0.42187 1.51562,0.95312 0.59375,0.53125 0.59375,1.03125 0,0.25 -0.21875,0.5625 -0.21875,0.29688 -0.53125,0.57813 -0.3125,0.26562 -0.6875,0.45312 -0.35937,0.17188 -0.64062,0.17188 -0.375,0 -0.84375,-0.3125 -0.45313,-0.3125 -1.01563,-0.6875 -0.54687,-0.39063 -1.20312,-0.70313 -0.65625,-0.3125 -1.42188,-0.3125 -0.5,0 -0.82812,0.25 -0.3125,0.23438 -0.3125,0.67188 0,0.39062 0.375,0.79687 0.375,0.39063 0.98437,0.8125 0.625,0.42188 1.40625,0.89063 0.78125,0.46875 1.59375,1 0.82813,0.53125 1.60938,1.15625 0.78125,0.625 1.39062,1.35937 0.625,0.73438 1,1.60938 0.375,0.85937 0.375,1.875 0,0.875 -0.3125,1.59375 -0.3125,0.71875 -0.89062,1.23437 -0.57813,0.51563 -1.375,0.79688 -0.79688,0.28125 -1.75,0.28125 -1.20313,0 -2.21875,-0.375 -1.01563,-0.35938 -1.75,-1 -0.73438,-0.64063 -1.15625,-1.53125 -0.40625,-0.89063 -0.40625,-1.95313 0,-1.375 0.48437,-2 0.5,-0.625 1.5625,-0.625 0.65625,0 1.04688,0.25 0.39062,0.25 0.39062,0.60938 0,0.1875 -0.0625,0.39062 -0.0625,0.1875 -0.14062,0.40625 -0.0625,0.20313 -0.125,0.4375 -0.0469,0.23438 -0.0469,0.46875 0,0.40625 0.1875,0.78125 0.1875,0.375 0.5,0.65625 0.32813,0.29688 0.75,0.46875 0.42188,0.17188 0.89063,0.17188 1.25,0 1.25,-1.03125 0,-0.8125 -0.64063,-1.53125 -0.64062,-0.73438 -1.60937,-1.42188 -0.96875,-0.70312 -2.09375,-1.40625 -1.10938,-0.70312 -2.07813,-1.46875 -0.96875,-0.76562 -1.60937,-1.625 -0.64063,-0.875 -0.64063,-1.89062 0,-0.84375 0.34375,-1.54688 0.35938,-0.70312 0.96875,-1.20312 0.60938,-0.51563 1.42188,-0.79688 0.82812,-0.28125 1.78125,-0.28125 z"
       id="path114480" />
    <path
       d="m 147.63859,299.52805 q 0,-0.82813 0.46875,-1.15625 0.46875,-0.34375 1.54687,-0.34375 0.39063,0 0.65625,0.0781 0.28125,0.0625 0.46875,0.25 0.20313,0.1875 0.3125,0.5 0.125,0.29688 0.20313,0.76563 0.1875,1.45312 0.40625,3 0.23437,1.54687 0.48437,3.10937 0.0937,0.70313 0.73438,0.70313 0.17187,0 0.5625,-0.0312 0.40625,-0.0469 0.95312,-0.0937 0.54688,-0.0625 1.17188,-0.125 0.64062,-0.0625 1.26562,-0.10938 0.64063,-0.0625 1.20313,-0.0937 0.57812,-0.0469 1.01562,-0.0469 0.34375,0 0.54688,0.14062 0.20312,0.125 0.3125,0.34375 0.125,0.20313 0.15625,0.46875 0.0469,0.25 0.0469,0.51563 0,0.23437 -0.0937,0.48437 -0.0781,0.25 -0.23437,0.45313 -0.14063,0.1875 -0.35938,0.3125 -0.21875,0.125 -0.5,0.125 -1.35937,0 -2.75,0.0937 -1.375,0.0781 -2.75,0.21875 -0.70312,0.0937 -0.70312,0.70312 0,0.0469 0.0156,0.125 0.0156,0.0625 0.0156,0.10938 0.1875,1.35937 0.34375,2.54687 0.17187,1.1875 0.28125,2.125 0.125,0.92188 0.1875,1.54688 0.0781,0.60937 0.0781,0.8125 0,0.5625 -0.10937,0.9375 -0.10938,0.39062 -0.35938,0.625 -0.25,0.25 -0.67187,0.34375 -0.40625,0.10937 -1.03125,0.10937 -0.59375,0 -0.875,-0.28125 -0.28125,-0.28125 -0.3125,-0.85937 -0.0937,-1.84375 -0.29688,-3.70313 -0.20312,-1.875 -0.46875,-3.73437 -0.14062,-0.67188 -0.70312,-0.67188 -0.0469,0 -0.10938,0.0156 -0.0625,0.0156 -0.10937,0.0156 -0.96875,0.21875 -1.82813,0.4375 -0.85937,0.21875 -1.60937,0.46875 -0.42188,0.14063 -0.75,0.20313 -0.32813,0.0469 -0.59375,0.0469 -0.35938,0 -0.53125,-0.3125 -0.17188,-0.32812 -0.17188,-0.8125 0,-0.17187 0.0312,-0.39062 0.0312,-0.23438 0.125,-0.45313 0.0781,-0.23437 0.25,-0.42187 0.15625,-0.20313 0.4375,-0.32813 0.65625,-0.26562 1.75,-0.54687 1.09375,-0.29688 2.46875,-0.54688 0.3125,-0.0781 0.48438,-0.25 0.1875,-0.1875 0.1875,-0.54687 0,-0.0781 0,-0.15625 0,-0.0937 -0.0312,-0.1875 -0.25,-1.4375 -0.48438,-2.60938 -0.21875,-1.1875 -0.39062,-2.03125 -0.15625,-0.84375 -0.25,-1.32812 -0.0937,-0.48438 -0.0937,-0.5625 z"
       id="path114482" />
    <path
       d="m 303.43546,312.38742 q 0,-0.26562 0.0625,-0.59375 0.0625,-0.32812 0.0625,-0.71875 0,-0.26562 -0.23437,-0.40625 -0.21875,-0.14062 -0.5,-0.3125 -0.28125,-0.17187 -0.51563,-0.4375 -0.21875,-0.26562 -0.21875,-0.76562 0,-0.35938 0.1875,-0.71875 0.20313,-0.35938 0.57813,-0.65625 0.92187,-0.6875 1.90625,-1.23438 1,-0.54687 1.98437,-0.92187 1,-0.375 1.96875,-0.57813 0.96875,-0.20312 1.85938,-0.20312 1.5,0 2.8125,0.5625 1.32812,0.54687 2.29687,1.51562 0.98438,0.95313 1.54688,2.25 0.57812,1.28125 0.57812,2.75 0,1.4375 -0.60937,2.73438 -0.59375,1.28125 -1.60938,2.25 -1.01562,0.96875 -2.39062,1.53125 -1.35938,0.57812 -2.875,0.57812 -1.48438,0 -2.75,-0.5 -1.26563,-0.5 -2.1875,-1.375 -0.92188,-0.89062 -1.4375,-2.09375 -0.51563,-1.21875 -0.51563,-2.65625 z m 7.23438,3.8125 q 0.65625,0 1.35937,-0.26562 0.70313,-0.26563 1.28125,-0.76563 0.59375,-0.51562 0.96875,-1.25 0.39063,-0.73437 0.39063,-1.65625 0,-0.9375 -0.34375,-1.75 -0.34375,-0.8125 -0.95313,-1.40625 -0.59375,-0.60937 -1.42187,-0.95312 -0.8125,-0.34375 -1.76563,-0.34375 -1.73437,0 -2.65625,0.90625 -0.92187,0.89062 -0.92187,2.75 0,1.01562 0.29687,1.89062 0.3125,0.85938 0.85938,1.5 0.54687,0.625 1.28125,0.98438 0.75,0.35937 1.625,0.35937 z"
       id="path114484" />
    <path
       d="m 320.10734,304.96555 q 0,-0.23438 0.20312,-0.45313 0.20313,-0.23437 0.53125,-0.40625 0.32813,-0.1875 0.73438,-0.29687 0.42187,-0.125 0.84375,-0.125 0.23437,0 0.39062,0.125 0.17188,0.125 0.29688,0.48437 0.125,0.34375 0.21875,0.98438 0.10937,0.625 0.20312,1.64062 0.0625,0.3125 0.10938,0.48438 0.0625,0.15625 0.15625,0.15625 0.14062,0 0.28125,-0.48438 1.14062,-3.29687 3.29687,-3.29687 1,0 1.8125,0.625 0.82813,0.625 1.53125,2.04687 0.71875,1.40625 1.35938,3.71875 0.64062,2.29688 1.28125,5.67188 0.0312,0.17187 0.0469,0.3125 0.0156,0.14062 0.0156,0.26562 0,0.35938 -0.17188,0.625 -0.15625,0.25 -0.42187,0.42188 -0.26563,0.15625 -0.59375,0.23437 -0.32813,0.0937 -0.65625,0.0937 -0.65625,0 -0.95313,-0.14062 -0.28125,-0.14063 -0.35937,-0.53125 -0.45313,-2.375 -0.89063,-4.21875 -0.42187,-1.84375 -0.84375,-3.09375 -0.40625,-1.26563 -0.8125,-1.92188 -0.40625,-0.65625 -0.8125,-0.65625 -0.40625,0 -0.76562,0.51563 -0.34375,0.5 -0.67188,1.57812 -0.32812,1.07813 -0.64062,2.73438 -0.29688,1.65625 -0.57813,3.95312 -0.0781,0.625 -0.625,1 -0.54687,0.375 -1.39062,0.375 -0.5625,0 -0.85938,-0.23437 -0.29687,-0.23438 -0.32812,-0.64063 -0.14063,-3.25 -0.3125,-5.34375 -0.15625,-2.10937 -0.29688,-3.375 -0.14062,-1.28125 -0.23437,-1.90625 -0.0937,-0.625 -0.0937,-0.92187 z"
       id="path114486" />
    <path
       d="m 352.43546,303.91867 q 0.85938,0 1.65625,0.26563 0.79688,0.26562 1.40625,0.73437 0.60938,0.46875 0.96875,1.125 0.375,0.65625 0.375,1.45313 0,0.32812 -0.15625,0.64062 -0.14062,0.29688 -0.39062,0.53125 -0.25,0.21875 -0.57813,0.35938 -0.3125,0.125 -0.65625,0.125 -0.0312,0 -0.0625,0.0156 -0.0156,0 -0.0469,0 -0.0312,0.0156 -0.0625,0.0156 l 0.0625,1.25 q 0.0625,2.23437 0.625,3.26562 0.57812,1.03125 1.5,1.03125 0.32812,0 0.57812,-0.0625 0.26563,-0.0625 0.48438,-0.14062 0.23437,-0.0937 0.4375,-0.15625 0.20312,-0.0625 0.40625,-0.0625 0.35937,0 0.625,0.3125 0.28125,0.3125 0.28125,0.75 0,0.4375 -0.34375,0.875 -0.32813,0.4375 -0.875,0.79687 -0.54688,0.34375 -1.23438,0.5625 -0.6875,0.21875 -1.39062,0.21875 -1.21875,0 -2.14063,-1 -0.92187,-1.01562 -1.3125,-2.96875 -0.0937,-0.3125 -0.25,-0.3125 -0.1875,0 -0.32812,0.1875 -1.54688,1.95313 -3.29688,2.9375 -1.75,0.96875 -3.45312,0.96875 -0.79688,0 -1.4375,-0.23437 -0.64063,-0.23438 -1.09375,-0.65625 -0.4375,-0.4375 -0.6875,-1.04688 -0.23438,-0.625 -0.23438,-1.39062 0,-1.07813 0.46875,-2.26563 0.48438,-1.1875 1.29688,-2.34375 0.8125,-1.15625 1.875,-2.20312 1.07812,-1.04688 2.25,-1.84375 1.1875,-0.79688 2.40625,-1.26563 1.21875,-0.46875 2.32812,-0.46875 z m -0.51562,5.40625 q 0.28125,-0.53125 0.51562,-0.76562 0.23438,-0.25 0.67188,-0.32813 0.34375,-0.0469 0.34375,-0.21875 0,-0.125 -0.0937,-0.26562 -0.29688,-0.40625 -0.625,-0.70313 -0.32813,-0.3125 -0.875,-0.3125 -0.59375,0 -1.32813,0.34375 -0.73437,0.34375 -1.5,0.92188 -0.75,0.5625 -1.48437,1.29687 -0.71875,0.71875 -1.28125,1.48438 -0.5625,0.76562 -0.90625,1.51562 -0.34375,0.75 -0.34375,1.34375 0,0.53125 0.28125,0.82813 0.29687,0.29687 0.79687,0.29687 1.28125,0 2.79688,-1.35937 1.51562,-1.35938 3.03125,-4.07813 z"
       id="path114488" />
    <path
       d="m 383.90421,305.51242 q 0.0469,-0.4375 0.10938,-0.71875 0.0781,-0.29687 0.21875,-0.46875 0.15625,-0.1875 0.39062,-0.26562 0.23438,-0.0781 0.59375,-0.0781 1.14063,0 1.67188,0.34375 0.54687,0.32813 0.54687,1.0625 0,0.14063 -0.0625,0.625 -0.0469,0.46875 -0.14062,1.17188 -0.0937,0.6875 -0.21875,1.53125 -0.10938,0.82812 -0.21875,1.6875 -0.28125,2 -0.64063,4.48437 -0.21875,1.46875 -0.875,2.10938 -0.64062,0.64062 -1.90625,0.64062 -0.95312,0 -1.96875,-0.48437 -1.01562,-0.48438 -1.96875,-1.3125 -0.95312,-0.82813 -1.8125,-1.92188 -0.84375,-1.10937 -1.48437,-2.34375 -0.64063,-1.25 -1.01563,-2.54687 -0.35937,-1.29688 -0.35937,-2.53125 0,-1.39063 0.39062,-2.07813 0.40625,-0.70312 1.39063,-0.70312 0.6875,0 1.14062,0.0937 0.45313,0.0781 0.71875,0.29687 0.28125,0.20313 0.39063,0.54688 0.125,0.34375 0.125,0.85937 0,0.34375 -0.0312,0.6875 -0.0312,0.34375 -0.0312,0.6875 0,0.79688 0.15625,1.67188 0.17187,0.85937 0.45312,1.6875 0.28125,0.82812 0.65625,1.57812 0.375,0.73438 0.79688,1.29688 0.42187,0.5625 0.84375,0.89062 0.4375,0.32813 0.84375,0.32813 0.28125,0 0.42187,-0.1875 0.15625,-0.1875 0.20313,-0.64063 z"
       id="path114490" />
    <path
       d="m 391.99796,301.63742 q -0.45312,0 -0.85937,-0.125 -0.39063,-0.14062 -0.6875,-0.375 -0.28125,-0.25 -0.45313,-0.57812 -0.17187,-0.32813 -0.17187,-0.71875 0,-0.65625 0.51562,-1.0625 0.53125,-0.40625 1.40625,-0.40625 0.40625,0 0.78125,0.15625 0.375,0.14062 0.65625,0.39062 0.29688,0.25 0.46875,0.59375 0.17188,0.32813 0.17188,0.6875 0,0.67188 -0.5,1.0625 -0.48438,0.375 -1.32813,0.375 z m -2.14062,4.76563 q 0,-0.54688 0.46875,-0.89063 0.48437,-0.35937 1.26562,-0.35937 1.40625,0 1.5,0.96875 0.0625,0.67187 0.125,1.51562 0.0781,0.84375 0.14063,1.79688 0.0781,0.9375 0.125,1.95312 0.0625,1 0.10937,1.98438 0.0469,0.96875 0.0781,1.875 0.0312,0.90625 0.0312,1.65625 0,0.78125 -0.5625,1.17187 -0.54688,0.39063 -1.60938,0.39063 -0.48437,0 -0.76562,-0.23438 -0.26563,-0.21875 -0.26563,-0.65625 0,-2.15625 -0.10937,-4.03125 -0.0937,-1.89062 -0.21875,-3.35937 -0.10938,-1.46875 -0.21875,-2.4375 -0.0937,-0.98438 -0.0937,-1.34375 z"
       id="path114492" />
    <path
       d="m 396.85734,304.96555 q 0,-0.23438 0.20312,-0.45313 0.20313,-0.23437 0.53125,-0.40625 0.32813,-0.1875 0.73438,-0.29687 0.42187,-0.125 0.84375,-0.125 0.23437,0 0.39062,0.125 0.17188,0.125 0.29688,0.48437 0.125,0.34375 0.21875,0.98438 0.10937,0.625 0.20312,1.64062 0.0625,0.3125 0.10938,0.48438 0.0625,0.15625 0.15625,0.15625 0.14062,0 0.28125,-0.48438 1.14062,-3.29687 3.29687,-3.29687 1,0 1.8125,0.625 0.82813,0.625 1.53125,2.04687 0.71875,1.40625 1.35938,3.71875 0.64062,2.29688 1.28125,5.67188 0.0312,0.17187 0.0469,0.3125 0.0156,0.14062 0.0156,0.26562 0,0.35938 -0.17188,0.625 -0.15625,0.25 -0.42187,0.42188 -0.26563,0.15625 -0.59375,0.23437 -0.32813,0.0937 -0.65625,0.0937 -0.65625,0 -0.95313,-0.14062 -0.28125,-0.14063 -0.35937,-0.53125 -0.45313,-2.375 -0.89063,-4.21875 -0.42187,-1.84375 -0.84375,-3.09375 -0.40625,-1.26563 -0.8125,-1.92188 -0.40625,-0.65625 -0.8125,-0.65625 -0.40625,0 -0.76562,0.51563 -0.34375,0.5 -0.67188,1.57812 -0.32812,1.07813 -0.64062,2.73438 -0.29688,1.65625 -0.57813,3.95312 -0.0781,0.625 -0.625,1 -0.54687,0.375 -1.39062,0.375 -0.5625,0 -0.85938,-0.23437 -0.29687,-0.23438 -0.32812,-0.64063 -0.14063,-3.25 -0.3125,-5.34375 -0.15625,-2.10937 -0.29688,-3.375 -0.14062,-1.28125 -0.23437,-1.90625 -0.0937,-0.625 -0.0937,-0.92187 z"
       id="path114494" />
    <path
       d="m 425.09171,314.15305 q 0.45313,-0.39063 0.89063,-0.39063 0.25,0 0.45312,0.125 0.20313,0.125 0.45313,0.39063 0.23437,0.35937 0.32812,0.59375 0.10938,0.21875 0.10938,0.4375 0,0.46875 -0.46875,0.89062 -0.75,0.625 -1.625,1.125 -0.875,0.48438 -1.82813,0.82813 -0.95312,0.34375 -1.96875,0.51562 -1.01562,0.1875 -2.01562,0.1875 -1.26563,0 -2.375,-0.32812 -1.10938,-0.3125 -1.98438,-0.90625 -0.85937,-0.59375 -1.45312,-1.42188 -0.59375,-0.84375 -0.84375,-1.89062 -0.14063,-0.4375 -0.26563,-0.5625 -0.10937,-0.14063 -0.375,-0.14063 -0.57812,0 -0.89062,-0.28125 -0.3125,-0.28125 -0.3125,-0.8125 0,-0.21875 0.0312,-0.28125 l 0.0312,-0.3125 q 0.0781,-0.5625 0.29687,-0.8125 0.23438,-0.25 0.71875,-0.25 h 0.23438 q 0.65625,0 0.92187,-0.60937 0.48438,-1.07813 1.23438,-1.96875 0.75,-0.89063 1.6875,-1.51563 0.9375,-0.64062 2,-0.98437 1.07812,-0.35938 2.1875,-0.35938 1.15625,0 2.15625,0.34375 1.01562,0.32813 1.76562,0.92188 0.75,0.59375 1.17188,1.39062 0.4375,0.79688 0.4375,1.71875 0,0.64063 -0.25,1.17188 -0.25,0.53125 -0.71875,0.9375 -0.46875,0.39062 -1.14063,0.64062 -0.65625,0.25 -1.5,0.32813 l -5.42187,0.54687 q -0.3125,0 -0.51563,0.15625 -0.1875,0.15625 -0.1875,0.42188 0,0.40625 0.29688,0.78125 0.3125,0.375 0.8125,0.67187 0.51562,0.28125 1.17187,0.45313 0.67188,0.17187 1.375,0.17187 0.67188,0 1.375,-0.125 0.71875,-0.14062 1.40625,-0.39062 0.70313,-0.25 1.35938,-0.59375 0.65625,-0.35938 1.23437,-0.8125 z m -3.48437,-4.03125 q 0.23437,-0.0469 0.40625,-0.21875 0.17187,-0.1875 0.17187,-0.45313 0,-0.23437 -0.17187,-0.4375 -0.17188,-0.20312 -0.46875,-0.35937 -0.29688,-0.17188 -0.6875,-0.26563 -0.39063,-0.0937 -0.82813,-0.0937 -0.64062,0 -1.3125,0.1875 -0.67187,0.1875 -1.21875,0.5 -0.54687,0.29688 -0.89062,0.67188 -0.34375,0.35937 -0.34375,0.71875 0,0.35937 0.4375,0.35937 0.26562,0 0.85937,-0.0625 0.59375,-0.0625 1.3125,-0.14062 0.71875,-0.0937 1.45313,-0.20313 0.73437,-0.10937 1.28125,-0.20312 z"
       id="path114496" />
  </g>
  <text
     xml:space="preserve"
     style="font-size:32px;line-height:1.25;font-family:'Gochi Hand';-inkscape-font-specification:'Gochi Hand';letter-spacing:0px;word-spacing:0px"
     x="12.945085"
     y="388.97003"
     id="text56520"><tspan
       sodipodi:role="line"
       id="tspan56518"
       x="12.945085"
       y="388.97003" /></text>
  <text
     xml:space="preserve"
     style="font-size:32px;line-height:1.25;font-family:'Gochi Hand';-inkscape-font-specification:'Gochi Hand';letter-spacing:0px;word-spacing:0px"
     x="7.4820952"
     y="388.77542"
     id="text57580"><tspan
       sodipodi:role="line"
       id="tspan57578"
       x="7.4820952"
       y="388.77542" /></text>
  <g
     aria-label="which had been               over  a"
     id="text58552"
     style="font-size:32px;line-height:1.25;font-family:'Gochi Hand';-inkscape-font-specification:'Gochi Hand';letter-spacing:0px;word-spacing:0px">
    <path
       d="m 13.371039,381.7514 q 0,-2.46875 0.59375,-3.79687 0.59375,-1.32813 1.703125,-1.32813 1.765625,0 1.765625,3.04688 0,1.07812 -0.125,2.03125 -0.109375,0.95312 -0.328125,1.84375 -0.03125,0.125 -0.04687,0.23437 -0.01563,0.10938 -0.01563,0.20313 0,0.32812 0.125,0.57812 0.78125,1.98438 2.890625,1.98438 0.75,0 1.40625,-0.32813 0.65625,-0.32812 1.140625,-0.89062 0.484375,-0.57813 0.75,-1.34375 0.28125,-0.76563 0.28125,-1.65625 0,-1 -0.234375,-1.65625 -0.234375,-0.67188 -0.515625,-1.14063 -0.28125,-0.48437 -0.515625,-0.875 -0.234375,-0.40625 -0.234375,-0.90625 0,-0.23437 0.203125,-0.48437 0.21875,-0.26563 0.53125,-0.48438 0.328125,-0.21875 0.703125,-0.35937 0.390625,-0.14063 0.734375,-0.14063 0.453125,0 0.890625,0.5 0.453125,0.5 0.796875,1.3125 0.359375,0.79688 0.5625,1.82813 0.21875,1.03125 0.21875,2.07812 0,1.51563 -0.5625,2.85938 -0.5625,1.34375 -1.53125,2.35937 -0.96875,1.01563 -2.265625,1.60938 -1.28125,0.59375 -2.71875,0.59375 -1.21875,0 -2.171875,-0.4375 -0.9375,-0.42188 -1.734375,-1.5 -0.125,-0.20313 -0.25,-0.28125 -0.125,-0.0781 -0.25,-0.0781 -0.15625,0 -0.28125,0.0781 -0.125,0.0781 -0.265625,0.28125 -1.0625,1.39062 -2.28125,1.98437 -1.203125,0.59375 -2.6562496,0.59375 -1.609375,0 -2.90625,-0.89062 -1.28125,-0.875 -2.1875,-2.5 -0.90625,-1.625 -1.390625,-3.9375 -0.484375,-2.32813 -0.484375,-5.20313 0,-1.17187 0.09375,-1.9375 0.09375,-0.78125 0.34375,-1.21875 0.25,-0.45312 0.65625,-0.625 0.40625,-0.1875 1.046875,-0.1875 0.671875,0 0.96875,0.26563 0.3125,0.25 0.3125,0.875 0,0.48437 -0.09375,1.09375 -0.09375,0.59375 -0.09375,1.03125 0,2.26562 0.3125,4.17187 0.328125,1.90625 0.890625,3.28125 0.578125,1.375 1.359375,2.14063 0.796875,0.76562 1.7499996,0.76562 2.125,0 3.140625,-2.17187 0.09375,-0.17188 0.125,-0.3125 0.03125,-0.15625 0.03125,-0.32813 0,-0.0937 0,-0.1875 0,-0.10937 -0.03125,-0.23437 -0.07813,-0.59375 -0.125,-1.125 -0.03125,-0.54688 -0.03125,-1.07813 z"
       id="path114517" />
    <path
       d="m 27.792914,373.39203 q 0,-1.6875 2.1875,-1.6875 0.375,0 0.65625,0.20312 0.28125,0.20313 0.328125,0.5625 0.140625,0.95313 0.25,1.89063 0.109375,0.9375 0.203125,2.10937 0.109375,1.15625 0.203125,2.6875 0.109375,1.51563 0.234375,3.625 0,0.21875 0.0625,0.3125 0.07813,0.0937 0.171875,0.0937 0.140625,0 0.28125,-0.28125 0.53125,-1.17187 1.1875,-2.09375 0.65625,-0.9375 1.40625,-1.57812 0.75,-0.65625 1.578125,-0.98438 0.84375,-0.34375 1.71875,-0.34375 1.15625,0 2.09375,0.65625 0.9375,0.65625 1.59375,1.85938 0.65625,1.20312 1.015625,2.92187 0.359375,1.70313 0.359375,3.8125 0,0.57813 -0.09375,0.95313 -0.07813,0.35937 -0.28125,0.57812 -0.203125,0.21875 -0.5625,0.29688 -0.359375,0.0937 -0.890625,0.0937 -0.734375,0 -1.0625,-0.28125 -0.3125,-0.28125 -0.3125,-0.875 0,-1.46875 -0.203125,-2.76563 -0.1875,-1.3125 -0.53125,-2.29687 -0.34375,-0.98438 -0.8125,-1.5625 -0.453125,-0.57813 -0.984375,-0.57813 -1.203125,0 -2.40625,1.95313 -1.1875,1.95312 -2.484375,5.89062 -0.125,0.35938 -0.28125,0.59375 -0.15625,0.23438 -0.375,0.375 -0.203125,0.14063 -0.5,0.1875 -0.296875,0.0625 -0.703125,0.0625 -0.828125,0 -1.1875,-0.3125 -0.34375,-0.3125 -0.375,-1.03125 -0.09375,-2.71875 -0.34375,-5.1875 -0.234375,-2.48437 -0.5,-4.48437 -0.25,-2.01563 -0.453125,-3.40625 -0.1875,-1.40625 -0.1875,-1.96875 z"
       id="path114519" />
    <path
       d="m 47.761664,372.5014 q -0.453125,0 -0.859375,-0.125 -0.390625,-0.14062 -0.6875,-0.375 -0.28125,-0.25 -0.453125,-0.57812 -0.171875,-0.32813 -0.171875,-0.71875 0,-0.65625 0.515625,-1.0625 0.53125,-0.40625 1.40625,-0.40625 0.40625,0 0.78125,0.15625 0.375,0.14062 0.65625,0.39062 0.296875,0.25 0.46875,0.59375 0.171875,0.32813 0.171875,0.6875 0,0.67188 -0.5,1.0625 -0.484375,0.375 -1.328125,0.375 z m -2.140625,4.76563 q 0,-0.54688 0.46875,-0.89063 0.484375,-0.35937 1.265625,-0.35937 1.40625,0 1.5,0.96875 0.0625,0.67187 0.125,1.51562 0.07813,0.84375 0.140625,1.79688 0.07813,0.9375 0.125,1.95312 0.0625,1 0.109375,1.98438 0.04687,0.96875 0.07813,1.875 0.03125,0.90625 0.03125,1.65625 0,0.78125 -0.5625,1.17187 -0.546875,0.39063 -1.609375,0.39063 -0.484375,0 -0.765625,-0.23438 -0.265625,-0.21875 -0.265625,-0.65625 0,-2.15625 -0.109375,-4.03125 -0.09375,-1.89062 -0.21875,-3.35937 -0.109375,-1.46875 -0.21875,-2.4375 -0.09375,-0.98438 -0.09375,-1.34375 z"
       id="path114521" />
    <path
       d="m 57.871039,375.54828 q 0.8125,0 1.578125,0.23437 0.765625,0.23438 1.34375,0.64063 0.59375,0.39062 0.953125,0.90625 0.359375,0.5 0.359375,1.03125 0,0.34375 -0.140625,0.67187 -0.140625,0.3125 -0.375,0.5625 -0.234375,0.23438 -0.53125,0.39063 -0.296875,0.14062 -0.625,0.14062 -0.359375,0 -0.65625,-0.26562 -0.296875,-0.28125 -0.640625,-0.60938 -0.328125,-0.34375 -0.75,-0.60937 -0.40625,-0.28125 -0.984375,-0.28125 -0.5625,0 -1.015625,0.26562 -0.453125,0.26563 -0.765625,0.75 -0.296875,0.46875 -0.46875,1.125 -0.15625,0.64063 -0.15625,1.40625 0,2.1875 0.828125,3.34375 0.828125,1.14063 2.375,1.14063 0.734375,0 1.25,-0.23438 0.53125,-0.23437 0.921875,-0.51562 0.40625,-0.28125 0.734375,-0.51563 0.328125,-0.23437 0.671875,-0.23437 0.1875,0 0.375,0.125 0.1875,0.10937 0.328125,0.29687 0.15625,0.17188 0.25,0.39063 0.109375,0.21875 0.109375,0.4375 0,0.51562 -0.515625,1.0625 -0.5,0.54687 -1.296875,1 -0.796875,0.4375 -1.78125,0.71875 -0.96875,0.28125 -1.890625,0.28125 -1.234375,0 -2.265625,-0.48438 -1.03125,-0.46875 -1.78125,-1.3125 -0.75,-0.85937 -1.171875,-2.04687 -0.40625,-1.1875 -0.40625,-2.625 0,-1.5625 0.453125,-2.875 0.46875,-1.3125 1.28125,-2.26563 0.828125,-0.96875 1.953125,-1.5 1.125,-0.54687 2.453125,-0.54687 z"
       id="path114523" />
    <path
       d="m 62.792914,373.39203 q 0,-1.6875 2.1875,-1.6875 0.375,0 0.65625,0.20312 0.28125,0.20313 0.328125,0.5625 0.140625,0.95313 0.25,1.89063 0.109375,0.9375 0.203125,2.10937 0.109375,1.15625 0.203125,2.6875 0.109375,1.51563 0.234375,3.625 0,0.21875 0.0625,0.3125 0.07813,0.0937 0.171875,0.0937 0.140625,0 0.28125,-0.28125 0.53125,-1.17187 1.1875,-2.09375 0.65625,-0.9375 1.40625,-1.57812 0.75,-0.65625 1.578125,-0.98438 0.84375,-0.34375 1.71875,-0.34375 1.15625,0 2.09375,0.65625 0.9375,0.65625 1.59375,1.85938 0.65625,1.20312 1.015625,2.92187 0.359375,1.70313 0.359375,3.8125 0,0.57813 -0.09375,0.95313 -0.07813,0.35937 -0.28125,0.57812 -0.203125,0.21875 -0.5625,0.29688 -0.359375,0.0937 -0.890625,0.0937 -0.734375,0 -1.0625,-0.28125 -0.3125,-0.28125 -0.3125,-0.875 0,-1.46875 -0.203125,-2.76563 -0.1875,-1.3125 -0.53125,-2.29687 -0.34375,-0.98438 -0.8125,-1.5625 -0.453125,-0.57813 -0.984375,-0.57813 -1.203125,0 -2.40625,1.95313 -1.1875,1.95312 -2.484375,5.89062 -0.125,0.35938 -0.28125,0.59375 -0.15625,0.23438 -0.375,0.375 -0.203125,0.14063 -0.5,0.1875 -0.296875,0.0625 -0.703125,0.0625 -0.828125,0 -1.1875,-0.3125 -0.34375,-0.3125 -0.375,-1.03125 -0.09375,-2.71875 -0.34375,-5.1875 -0.234375,-2.48437 -0.5,-4.48437 -0.25,-2.01563 -0.453125,-3.40625 -0.1875,-1.40625 -0.1875,-1.96875 z"
       id="path114525" />
    <path
       d="m 87.558539,373.39203 q 0,-1.6875 2.1875,-1.6875 0.375,0 0.65625,0.20312 0.28125,0.20313 0.328125,0.5625 0.140625,0.95313 0.25,1.89063 0.109375,0.9375 0.203125,2.10937 0.109375,1.15625 0.203125,2.6875 0.109375,1.51563 0.234375,3.625 0,0.21875 0.0625,0.3125 0.07813,0.0937 0.171875,0.0937 0.140625,0 0.28125,-0.28125 0.53125,-1.17187 1.1875,-2.09375 0.65625,-0.9375 1.40625,-1.57812 0.75,-0.65625 1.578125,-0.98438 0.84375,-0.34375 1.71875,-0.34375 1.15625,0 2.093751,0.65625 0.9375,0.65625 1.59375,1.85938 0.65625,1.20312 1.01562,2.92187 0.35938,1.70313 0.35938,3.8125 0,0.57813 -0.0937,0.95313 -0.0781,0.35937 -0.28125,0.57812 -0.20313,0.21875 -0.5625,0.29688 -0.35938,0.0937 -0.89063,0.0937 -0.73437,0 -1.0625,-0.28125 -0.312496,-0.28125 -0.312496,-0.875 0,-1.46875 -0.203125,-2.76563 -0.1875,-1.3125 -0.53125,-2.29687 -0.34375,-0.98438 -0.8125,-1.5625 -0.453125,-0.57813 -0.984375,-0.57813 -1.203125,0 -2.40625,1.95313 -1.1875,1.95312 -2.484375,5.89062 -0.125,0.35938 -0.28125,0.59375 -0.15625,0.23438 -0.375,0.375 -0.203125,0.14063 -0.5,0.1875 -0.296875,0.0625 -0.703125,0.0625 -0.828125,0 -1.1875,-0.3125 -0.34375,-0.3125 -0.375,-1.03125 -0.09375,-2.71875 -0.34375,-5.1875 -0.234375,-2.48437 -0.5,-4.48437 -0.25,-2.01563 -0.453125,-3.40625 -0.1875,-1.40625 -0.1875,-1.96875 z"
       id="path114527" />
    <path
       d="m 114.99604,374.78265 q 0.85937,0 1.65625,0.26563 0.79687,0.26562 1.40625,0.73437 0.60937,0.46875 0.96875,1.125 0.375,0.65625 0.375,1.45313 0,0.32812 -0.15625,0.64062 -0.14063,0.29688 -0.39063,0.53125 -0.25,0.21875 -0.57812,0.35938 -0.3125,0.125 -0.65625,0.125 -0.0312,0 -0.0625,0.0156 -0.0156,0 -0.0469,0 -0.0312,0.0156 -0.0625,0.0156 l 0.0625,1.25 q 0.0625,2.23437 0.625,3.26562 0.57813,1.03125 1.5,1.03125 0.32813,0 0.57813,-0.0625 0.26562,-0.0625 0.48437,-0.14062 0.23438,-0.0937 0.4375,-0.15625 0.20313,-0.0625 0.40625,-0.0625 0.35938,0 0.625,0.3125 0.28125,0.3125 0.28125,0.75 0,0.4375 -0.34375,0.875 -0.32812,0.4375 -0.875,0.79687 -0.54687,0.34375 -1.23437,0.5625 -0.6875,0.21875 -1.39063,0.21875 -1.21875,0 -2.14062,-1 -0.92188,-1.01562 -1.3125,-2.96875 -0.0937,-0.3125 -0.25,-0.3125 -0.1875,0 -0.32813,0.1875 -1.54687,1.95313 -3.29687,2.9375 -1.75,0.96875 -3.45313,0.96875 -0.79687,0 -1.4375,-0.23437 -0.64062,-0.23438 -1.09375,-0.65625 -0.4375,-0.4375 -0.6875,-1.04688 -0.23437,-0.625 -0.23437,-1.39062 0,-1.07813 0.46875,-2.26563 0.48437,-1.1875 1.29687,-2.34375 0.8125,-1.15625 1.875,-2.20312 1.07813,-1.04688 2.25,-1.84375 1.1875,-0.79688 2.40625,-1.26563 1.21875,-0.46875 2.32813,-0.46875 z m -0.51563,5.40625 q 0.28125,-0.53125 0.51563,-0.76562 0.23437,-0.25 0.67187,-0.32813 0.34375,-0.0469 0.34375,-0.21875 0,-0.125 -0.0937,-0.26562 -0.29687,-0.40625 -0.625,-0.70313 -0.32812,-0.3125 -0.875,-0.3125 -0.59375,0 -1.32812,0.34375 -0.73438,0.34375 -1.5,0.92188 -0.75,0.5625 -1.48438,1.29687 -0.71875,0.71875 -1.28125,1.48438 -0.5625,0.76562 -0.90625,1.51562 -0.34375,0.75 -0.34375,1.34375 0,0.53125 0.28125,0.82813 0.29688,0.29687 0.79688,0.29687 1.28125,0 2.79687,-1.35937 1.51563,-1.35938 3.03125,-4.07813 z"
       id="path114529" />
    <path
       d="m 133.40229,377.01703 q 0.0625,0.0312 0.1875,0.0312 0.34375,0 0.34375,-0.45313 v -4.85937 q 0,-0.92188 0.40625,-1.3125 0.42187,-0.39063 1.39062,-0.39063 0.98438,0 1.39063,0.40625 0.40625,0.40625 0.40625,1.39063 0,0.375 -0.0469,1.10937 -0.0469,0.71875 -0.10937,1.64063 -0.0469,0.92187 -0.0937,1.98437 -0.0469,1.04688 -0.0469,2.07813 0,1.59375 0.21875,2.75 0.21875,1.15625 0.625,1.92187 0.40625,0.75 0.96875,1.125 0.5625,0.35938 1.26563,0.35938 0.39062,0 0.70312,-0.0937 0.32813,-0.10938 0.76563,-0.10938 0.3125,0 0.51562,0.32813 0.21875,0.3125 0.21875,0.76562 0,0.40625 -0.25,0.76563 -0.23437,0.35937 -0.65625,0.625 -0.40625,0.26562 -0.95312,0.42187 -0.54688,0.14063 -1.14063,0.14063 -1.28125,0 -2.34375,-0.78125 -1.0625,-0.79688 -1.59375,-2.42188 -0.0469,-0.25 -0.15625,-0.25 -0.125,0 -0.20312,0.25 -0.42188,1.14063 -1.10938,2.0625 -0.67187,0.90625 -1.57812,1.5625 -0.89063,0.64063 -1.96875,0.98438 -1.0625,0.34375 -2.25,0.34375 -1.25,0 -2.29688,-0.42188 -1.03125,-0.40625 -1.78125,-1.14062 -0.75,-0.75 -1.17187,-1.75 -0.42188,-1.01563 -0.42188,-2.1875 0,-1.5 0.625,-2.82813 0.625,-1.32812 1.6875,-2.3125 1.07813,-1 2.5,-1.57812 1.42188,-0.57813 3.03125,-0.57813 0.65625,0 1.39063,0.10938 0.73437,0.0937 1.53125,0.3125 z m -4.48438,9.5625 q 0.89063,0 1.57813,-0.39063 0.70312,-0.39062 1.23437,-0.98437 0.54688,-0.60938 0.92188,-1.32813 0.375,-0.73437 0.60937,-1.42187 0.23438,-0.6875 0.34375,-1.23438 0.10938,-0.54687 0.10938,-0.78125 0,-0.17187 -0.0937,-0.29687 -0.0937,-0.14063 -0.28125,-0.21875 -0.42188,-0.10938 -0.875,-0.1875 -0.45313,-0.0937 -0.89063,-0.15625 -0.4375,-0.0625 -0.84375,-0.0937 -0.39062,-0.0312 -0.71875,-0.0312 -0.9375,0 -1.70312,0.28125 -0.76563,0.28125 -1.3125,0.79687 -0.53125,0.51563 -0.82813,1.23438 -0.29687,0.70312 -0.29687,1.54687 0,0.75 0.21875,1.35938 0.23437,0.59375 0.625,1.01562 0.40625,0.42188 0.96875,0.65625 0.5625,0.23438 1.23437,0.23438 z"
       id="path114531" />
    <path
       d="m 149.90229,384.82953 q -0.29688,-3.65625 -0.6875,-7.26563 -0.375,-3.60937 -1.10938,-7.20312 -0.0312,-0.125 -0.0312,-0.21875 0,-0.10938 0,-0.20313 0,-0.35937 0.14063,-0.625 0.15625,-0.26562 0.40625,-0.4375 0.25,-0.1875 0.5625,-0.28125 0.32812,-0.0937 0.6875,-0.0937 0.95312,0 1.3125,0.89063 0.15625,0.45312 0.3125,1.29687 0.17187,0.84375 0.34375,1.95313 0.1875,1.10937 0.35937,2.4375 0.17188,1.3125 0.32813,2.70312 0.0469,0.39063 0.25,0.39063 0.17187,0 0.35937,-0.23438 2.28125,-3 5.40625,-3 1.17188,0 2.1875,0.51563 1.01563,0.51562 1.76563,1.40625 0.75,0.89062 1.17187,2.10937 0.4375,1.21875 0.4375,2.625 0,1.3125 -0.42187,2.4375 -0.40625,1.125 -1.14063,1.9375 -0.73437,0.8125 -1.75,1.28125 -1,0.45313 -2.1875,0.45313 -1.46875,0 -2.875,-0.5625 -1.40625,-0.57813 -2.65625,-1.54688 -0.14062,-0.125 -0.29687,-0.125 -0.20313,0 -0.375,0.21875 -0.25,0.28125 -0.53125,0.375 -0.28125,0.0781 -0.6875,0.0781 -1.23438,0 -1.28125,-1.3125 z m 8.09375,-6.98438 q -0.625,0 -1.25,0.29688 -0.60938,0.28125 -1.15625,0.8125 -0.54688,0.53125 -1.01563,1.28125 -0.45312,0.73437 -0.76562,1.64062 -0.0312,0.0469 -0.0469,0.14063 -0.0156,0.0937 -0.0156,0.15625 0,0.26562 0.1875,0.40625 0.5625,0.48437 1.15625,0.90625 0.60937,0.42187 1.20312,0.73437 0.59375,0.3125 1.17188,0.5 0.57812,0.17188 1.07812,0.17188 1.125,0 1.70313,-0.65625 0.59375,-0.65625 0.59375,-1.90625 0,-0.96875 -0.21875,-1.78125 -0.21875,-0.82813 -0.59375,-1.42188 -0.375,-0.60937 -0.90625,-0.9375 -0.51563,-0.34375 -1.125,-0.34375 z"
       id="path114533" />
    <path
       d="m 179.46479,385.01703 q 0.45312,-0.39063 0.89062,-0.39063 0.25,0 0.45313,0.125 0.20312,0.125 0.45312,0.39063 0.23438,0.35937 0.32813,0.59375 0.10937,0.21875 0.10937,0.4375 0,0.46875 -0.46875,0.89062 -0.75,0.625 -1.625,1.125 -0.875,0.48438 -1.82812,0.82813 -0.95313,0.34375 -1.96875,0.51562 -1.01563,0.1875 -2.01563,0.1875 -1.26562,0 -2.375,-0.32812 -1.10937,-0.3125 -1.98437,-0.90625 -0.85938,-0.59375 -1.45313,-1.42188 -0.59375,-0.84375 -0.84375,-1.89062 -0.14062,-0.4375 -0.26562,-0.5625 -0.10938,-0.14063 -0.375,-0.14063 -0.57813,0 -0.89063,-0.28125 -0.3125,-0.28125 -0.3125,-0.8125 0,-0.21875 0.0312,-0.28125 l 0.0312,-0.3125 q 0.0781,-0.5625 0.29688,-0.8125 0.23437,-0.25 0.71875,-0.25 h 0.23437 q 0.65625,0 0.92188,-0.60937 0.48437,-1.07813 1.23437,-1.96875 0.75,-0.89063 1.6875,-1.51563 0.9375,-0.64062 2,-0.98437 1.07813,-0.35938 2.1875,-0.35938 1.15625,0 2.15625,0.34375 1.01563,0.32813 1.76563,0.92188 0.75,0.59375 1.17187,1.39062 0.4375,0.79688 0.4375,1.71875 0,0.64063 -0.25,1.17188 -0.25,0.53125 -0.71875,0.9375 -0.46875,0.39062 -1.14062,0.64062 -0.65625,0.25 -1.5,0.32813 l -5.42188,0.54687 q -0.3125,0 -0.51562,0.15625 -0.1875,0.15625 -0.1875,0.42188 0,0.40625 0.29687,0.78125 0.3125,0.375 0.8125,0.67187 0.51563,0.28125 1.17188,0.45313 0.67187,0.17187 1.375,0.17187 0.67187,0 1.375,-0.125 0.71875,-0.14062 1.40625,-0.39062 0.70312,-0.25 1.35937,-0.59375 0.65625,-0.35938 1.23438,-0.8125 z m -3.48438,-4.03125 q 0.23438,-0.0469 0.40625,-0.21875 0.17188,-0.1875 0.17188,-0.45313 0,-0.23437 -0.17188,-0.4375 -0.17187,-0.20312 -0.46875,-0.35937 -0.29687,-0.17188 -0.6875,-0.26563 -0.39062,-0.0937 -0.82812,-0.0937 -0.64063,0 -1.3125,0.1875 -0.67188,0.1875 -1.21875,0.5 -0.54688,0.29688 -0.89063,0.67188 -0.34375,0.35937 -0.34375,0.71875 0,0.35937 0.4375,0.35937 0.26563,0 0.85938,-0.0625 0.59375,-0.0625 1.3125,-0.14062 0.71875,-0.0937 1.45312,-0.20313 0.73438,-0.10937 1.28125,-0.20312 z"
       id="path114535" />
    <path
       d="m 195.98041,385.01703 q 0.45313,-0.39063 0.89063,-0.39063 0.25,0 0.45312,0.125 0.20313,0.125 0.45313,0.39063 0.23437,0.35937 0.32812,0.59375 0.10938,0.21875 0.10938,0.4375 0,0.46875 -0.46875,0.89062 -0.75,0.625 -1.625,1.125 -0.875,0.48438 -1.82813,0.82813 -0.95312,0.34375 -1.96875,0.51562 -1.01562,0.1875 -2.01562,0.1875 -1.26563,0 -2.375,-0.32812 -1.10938,-0.3125 -1.98438,-0.90625 -0.85937,-0.59375 -1.45312,-1.42188 -0.59375,-0.84375 -0.84375,-1.89062 -0.14063,-0.4375 -0.26563,-0.5625 -0.10937,-0.14063 -0.375,-0.14063 -0.57812,0 -0.89062,-0.28125 -0.3125,-0.28125 -0.3125,-0.8125 0,-0.21875 0.0312,-0.28125 l 0.0312,-0.3125 q 0.0781,-0.5625 0.29687,-0.8125 0.23438,-0.25 0.71875,-0.25 h 0.23438 q 0.65625,0 0.92187,-0.60937 0.48438,-1.07813 1.23438,-1.96875 0.75,-0.89063 1.6875,-1.51563 0.9375,-0.64062 2,-0.98437 1.07812,-0.35938 2.1875,-0.35938 1.15625,0 2.15625,0.34375 1.01562,0.32813 1.76562,0.92188 0.75,0.59375 1.17188,1.39062 0.4375,0.79688 0.4375,1.71875 0,0.64063 -0.25,1.17188 -0.25,0.53125 -0.71875,0.9375 -0.46875,0.39062 -1.14063,0.64062 -0.65625,0.25 -1.5,0.32813 l -5.42187,0.54687 q -0.3125,0 -0.51563,0.15625 -0.1875,0.15625 -0.1875,0.42188 0,0.40625 0.29688,0.78125 0.3125,0.375 0.8125,0.67187 0.51562,0.28125 1.17187,0.45313 0.67188,0.17187 1.375,0.17187 0.67188,0 1.375,-0.125 0.71875,-0.14062 1.40625,-0.39062 0.70313,-0.25 1.35938,-0.59375 0.65625,-0.35938 1.23437,-0.8125 z m -3.48437,-4.03125 q 0.23437,-0.0469 0.40625,-0.21875 0.17187,-0.1875 0.17187,-0.45313 0,-0.23437 -0.17187,-0.4375 -0.17188,-0.20312 -0.46875,-0.35937 -0.29688,-0.17188 -0.6875,-0.26563 -0.39063,-0.0937 -0.82813,-0.0937 -0.64062,0 -1.3125,0.1875 -0.67187,0.1875 -1.21875,0.5 -0.54687,0.29688 -0.89062,0.67188 -0.34375,0.35937 -0.34375,0.71875 0,0.35937 0.4375,0.35937 0.26562,0 0.85937,-0.0625 0.59375,-0.0625 1.3125,-0.14062 0.71875,-0.0937 1.45313,-0.20313 0.73437,-0.10937 1.28125,-0.20312 z"
       id="path114537" />
    <path
       d="m 199.46479,375.82953 q 0,-0.23438 0.20312,-0.45313 0.20313,-0.23437 0.53125,-0.40625 0.32813,-0.1875 0.73438,-0.29687 0.42187,-0.125 0.84375,-0.125 0.23437,0 0.39062,0.125 0.17188,0.125 0.29688,0.48437 0.125,0.34375 0.21875,0.98438 0.10937,0.625 0.20312,1.64062 0.0625,0.3125 0.10938,0.48438 0.0625,0.15625 0.15625,0.15625 0.14062,0 0.28125,-0.48438 1.14062,-3.29687 3.29687,-3.29687 1,0 1.8125,0.625 0.82813,0.625 1.53125,2.04687 0.71875,1.40625 1.35938,3.71875 0.64062,2.29688 1.28125,5.67188 0.0312,0.17187 0.0469,0.3125 0.0156,0.14062 0.0156,0.26562 0,0.35938 -0.17188,0.625 -0.15625,0.25 -0.42187,0.42188 -0.26563,0.15625 -0.59375,0.23437 -0.32813,0.0937 -0.65625,0.0937 -0.65625,0 -0.95313,-0.14062 -0.28125,-0.14063 -0.35937,-0.53125 -0.45313,-2.375 -0.89063,-4.21875 -0.42187,-1.84375 -0.84375,-3.09375 -0.40625,-1.26563 -0.8125,-1.92188 -0.40625,-0.65625 -0.8125,-0.65625 -0.40625,0 -0.76562,0.51563 -0.34375,0.5 -0.67188,1.57812 -0.32812,1.07813 -0.64062,2.73438 -0.29688,1.65625 -0.57813,3.95312 -0.0781,0.625 -0.625,1 -0.54687,0.375 -1.39062,0.375 -0.5625,0 -0.85938,-0.23437 -0.29687,-0.23438 -0.32812,-0.64063 -0.14063,-3.25 -0.3125,-5.34375 -0.15625,-2.10937 -0.29688,-3.375 -0.14062,-1.28125 -0.23437,-1.90625 -0.0937,-0.625 -0.0937,-0.92187 z"
       id="path114539" />
    <path
       d="m 328.27729,383.2514 q 0,-0.26562 0.0625,-0.59375 0.0625,-0.32812 0.0625,-0.71875 0,-0.26562 -0.23438,-0.40625 -0.21875,-0.14062 -0.5,-0.3125 -0.28125,-0.17187 -0.51562,-0.4375 -0.21875,-0.26562 -0.21875,-0.76562 0,-0.35938 0.1875,-0.71875 0.20312,-0.35938 0.57812,-0.65625 0.92188,-0.6875 1.90625,-1.23438 1,-0.54687 1.98438,-0.92187 1,-0.375 1.96875,-0.57813 0.96875,-0.20312 1.85937,-0.20312 1.5,0 2.8125,0.5625 1.32813,0.54687 2.29688,1.51562 0.98437,0.95313 1.54687,2.25 0.57813,1.28125 0.57813,2.75 0,1.4375 -0.60938,2.73438 -0.59375,1.28125 -1.60937,2.25 -1.01563,0.96875 -2.39063,1.53125 -1.35937,0.57812 -2.875,0.57812 -1.48437,0 -2.75,-0.5 -1.26562,-0.5 -2.1875,-1.375 -0.92187,-0.89062 -1.4375,-2.09375 -0.51562,-1.21875 -0.51562,-2.65625 z m 7.23437,3.8125 q 0.65625,0 1.35938,-0.26562 0.70312,-0.26563 1.28125,-0.76563 0.59375,-0.51562 0.96875,-1.25 0.39062,-0.73437 0.39062,-1.65625 0,-0.9375 -0.34375,-1.75 -0.34375,-0.8125 -0.95312,-1.40625 -0.59375,-0.60937 -1.42188,-0.95312 -0.8125,-0.34375 -1.76562,-0.34375 -1.73438,0 -2.65625,0.90625 -0.92188,0.89062 -0.92188,2.75 0,1.01562 0.29688,1.89062 0.3125,0.85938 0.85937,1.5 0.54688,0.625 1.28125,0.98438 0.75,0.35937 1.625,0.35937 z"
       id="path114541" />
    <path
       d="m 353.04291,376.3764 q 0.0469,-0.4375 0.10938,-0.71875 0.0781,-0.29687 0.21875,-0.46875 0.15625,-0.1875 0.39062,-0.26562 0.23438,-0.0781 0.59375,-0.0781 1.14063,0 1.67188,0.34375 0.54687,0.32813 0.54687,1.0625 0,0.14063 -0.0625,0.625 -0.0469,0.46875 -0.14062,1.17188 -0.0937,0.6875 -0.21875,1.53125 -0.10938,0.82812 -0.21875,1.6875 -0.28125,2 -0.64063,4.48437 -0.21875,1.46875 -0.875,2.10938 -0.64062,0.64062 -1.90625,0.64062 -0.95312,0 -1.96875,-0.48437 -1.01562,-0.48438 -1.96875,-1.3125 -0.95312,-0.82813 -1.8125,-1.92188 -0.84375,-1.10937 -1.48437,-2.34375 -0.64063,-1.25 -1.01563,-2.54687 -0.35937,-1.29688 -0.35937,-2.53125 0,-1.39063 0.39062,-2.07813 0.40625,-0.70312 1.39063,-0.70312 0.6875,0 1.14062,0.0937 0.45313,0.0781 0.71875,0.29687 0.28125,0.20313 0.39063,0.54688 0.125,0.34375 0.125,0.85937 0,0.34375 -0.0312,0.6875 -0.0312,0.34375 -0.0312,0.6875 0,0.79688 0.15625,1.67188 0.17187,0.85937 0.45312,1.6875 0.28125,0.82812 0.65625,1.57812 0.375,0.73438 0.79688,1.29688 0.42187,0.5625 0.84375,0.89062 0.4375,0.32813 0.84375,0.32813 0.28125,0 0.42187,-0.1875 0.15625,-0.1875 0.20313,-0.64063 z"
       id="path114543" />
    <path
       d="m 372.08979,385.01703 q 0.45312,-0.39063 0.89062,-0.39063 0.25,0 0.45313,0.125 0.20312,0.125 0.45312,0.39063 0.23438,0.35937 0.32813,0.59375 0.10937,0.21875 0.10937,0.4375 0,0.46875 -0.46875,0.89062 -0.75,0.625 -1.625,1.125 -0.875,0.48438 -1.82812,0.82813 -0.95313,0.34375 -1.96875,0.51562 -1.01563,0.1875 -2.01563,0.1875 -1.26562,0 -2.375,-0.32812 -1.10937,-0.3125 -1.98437,-0.90625 -0.85938,-0.59375 -1.45313,-1.42188 -0.59375,-0.84375 -0.84375,-1.89062 -0.14062,-0.4375 -0.26562,-0.5625 -0.10938,-0.14063 -0.375,-0.14063 -0.57813,0 -0.89063,-0.28125 -0.3125,-0.28125 -0.3125,-0.8125 0,-0.21875 0.0312,-0.28125 l 0.0312,-0.3125 q 0.0781,-0.5625 0.29688,-0.8125 0.23437,-0.25 0.71875,-0.25 h 0.23437 q 0.65625,0 0.92188,-0.60937 0.48437,-1.07813 1.23437,-1.96875 0.75,-0.89063 1.6875,-1.51563 0.9375,-0.64062 2,-0.98437 1.07813,-0.35938 2.1875,-0.35938 1.15625,0 2.15625,0.34375 1.01563,0.32813 1.76563,0.92188 0.75,0.59375 1.17187,1.39062 0.4375,0.79688 0.4375,1.71875 0,0.64063 -0.25,1.17188 -0.25,0.53125 -0.71875,0.9375 -0.46875,0.39062 -1.14062,0.64062 -0.65625,0.25 -1.5,0.32813 l -5.42188,0.54687 q -0.3125,0 -0.51562,0.15625 -0.1875,0.15625 -0.1875,0.42188 0,0.40625 0.29687,0.78125 0.3125,0.375 0.8125,0.67187 0.51563,0.28125 1.17188,0.45313 0.67187,0.17187 1.375,0.17187 0.67187,0 1.375,-0.125 0.71875,-0.14062 1.40625,-0.39062 0.70312,-0.25 1.35937,-0.59375 0.65625,-0.35938 1.23438,-0.8125 z m -3.48438,-4.03125 q 0.23438,-0.0469 0.40625,-0.21875 0.17188,-0.1875 0.17188,-0.45313 0,-0.23437 -0.17188,-0.4375 -0.17187,-0.20312 -0.46875,-0.35937 -0.29687,-0.17188 -0.6875,-0.26563 -0.39062,-0.0937 -0.82812,-0.0937 -0.64063,0 -1.3125,0.1875 -0.67188,0.1875 -1.21875,0.5 -0.54688,0.29688 -0.89063,0.67188 -0.34375,0.35937 -0.34375,0.71875 0,0.35937 0.4375,0.35937 0.26563,0 0.85938,-0.0625 0.59375,-0.0625 1.3125,-0.14062 0.71875,-0.0937 1.45312,-0.20313 0.73438,-0.10937 1.28125,-0.20312 z"
       id="path114545" />
    <path
       d="m 383.77729,376.7514 q -0.57813,0 -1.01563,0.3125 -0.4375,0.29688 -0.75,0.84375 -0.3125,0.53125 -0.51562,1.26563 -0.20313,0.71875 -0.32813,1.57812 -0.125,0.85938 -0.17187,1.79688 -0.0469,0.9375 -0.0469,1.89062 0,1.25 0.0937,2.46875 0.10938,1.20313 0.10938,2.23438 0,0.67187 -0.5,1.04687 -0.5,0.39063 -1.42188,0.39063 -0.17187,0 -0.39062,-0.0312 -0.21875,-0.0312 -0.42188,-0.125 -0.1875,-0.0937 -0.34375,-0.26563 -0.14062,-0.15625 -0.15625,-0.4375 -0.14062,-1.375 -0.40625,-2.8125 -0.26562,-1.4375 -0.67187,-2.85937 -0.39063,-1.4375 -0.95313,-2.84375 -0.54687,-1.40625 -1.26562,-2.75 -0.125,-0.23438 -0.21875,-0.4375 -0.0781,-0.20313 -0.0781,-0.39063 0,-0.23437 0.20313,-0.5 0.21875,-0.28125 0.53125,-0.51562 0.32812,-0.23438 0.70312,-0.375 0.39063,-0.15625 0.75,-0.15625 0.59375,0 1.04688,0.82812 0.45312,0.8125 0.84375,2.60938 0.0781,0.3125 0.125,0.4375 0.0469,0.125 0.125,0.125 0.17187,0 0.21875,-0.53125 0.1875,-1.48438 0.64062,-2.54688 0.45313,-1.07812 1.125,-1.76562 0.6875,-0.70313 1.5625,-1.03125 0.89063,-0.32813 1.95313,-0.32813 0.60937,0 1.23437,0.10938 0.625,0.10937 1.125,0.32812 0.5,0.21875 0.8125,0.53125 0.3125,0.3125 0.3125,0.70313 0,0.28125 -0.125,0.67187 -0.10937,0.375 -0.29687,0.73438 -0.1875,0.34375 -0.4375,0.59375 -0.23438,0.23437 -0.48438,0.23437 -0.28125,0 -0.54687,-0.15625 -0.26563,-0.17187 -0.57813,-0.35937 -0.29687,-0.1875 -0.64062,-0.34375 -0.32813,-0.17188 -0.75,-0.17188 z"
       id="path114547" />
    <path
       d="m 411.60541,374.78265 q 0.85938,0 1.65625,0.26563 0.79688,0.26562 1.40625,0.73437 0.60938,0.46875 0.96875,1.125 0.375,0.65625 0.375,1.45313 0,0.32812 -0.15625,0.64062 -0.14062,0.29688 -0.39062,0.53125 -0.25,0.21875 -0.57813,0.35938 -0.3125,0.125 -0.65625,0.125 -0.0312,0 -0.0625,0.0156 -0.0156,0 -0.0469,0 -0.0312,0.0156 -0.0625,0.0156 l 0.0625,1.25 q 0.0625,2.23437 0.625,3.26562 0.57812,1.03125 1.5,1.03125 0.32812,0 0.57812,-0.0625 0.26563,-0.0625 0.48438,-0.14062 0.23437,-0.0937 0.4375,-0.15625 0.20312,-0.0625 0.40625,-0.0625 0.35937,0 0.625,0.3125 0.28125,0.3125 0.28125,0.75 0,0.4375 -0.34375,0.875 -0.32813,0.4375 -0.875,0.79687 -0.54688,0.34375 -1.23438,0.5625 -0.6875,0.21875 -1.39062,0.21875 -1.21875,0 -2.14063,-1 -0.92187,-1.01562 -1.3125,-2.96875 -0.0937,-0.3125 -0.25,-0.3125 -0.1875,0 -0.32812,0.1875 -1.54688,1.95313 -3.29688,2.9375 -1.75,0.96875 -3.45312,0.96875 -0.79688,0 -1.4375,-0.23437 -0.64063,-0.23438 -1.09375,-0.65625 -0.4375,-0.4375 -0.6875,-1.04688 -0.23438,-0.625 -0.23438,-1.39062 0,-1.07813 0.46875,-2.26563 0.48438,-1.1875 1.29688,-2.34375 0.8125,-1.15625 1.875,-2.20312 1.07812,-1.04688 2.25,-1.84375 1.1875,-0.79688 2.40625,-1.26563 1.21875,-0.46875 2.32812,-0.46875 z m -0.51562,5.40625 q 0.28125,-0.53125 0.51562,-0.76562 0.23438,-0.25 0.67188,-0.32813 0.34375,-0.0469 0.34375,-0.21875 0,-0.125 -0.0937,-0.26562 -0.29688,-0.40625 -0.625,-0.70313 -0.32813,-0.3125 -0.875,-0.3125 -0.59375,0 -1.32813,0.34375 -0.73437,0.34375 -1.5,0.92188 -0.75,0.5625 -1.48437,1.29687 -0.71875,0.71875 -1.28125,1.48438 -0.5625,0.76562 -0.90625,1.51562 -0.34375,0.75 -0.34375,1.34375 0,0.53125 0.28125,0.82813 0.29687,0.29687 0.79687,0.29687 1.28125,0 2.79688,-1.35937 1.51562,-1.35938 3.03125,-4.07813 z"
       id="path114549" />
  </g>
</svg>
